<svg width="180" height="41" viewBox="0 0 180 41" fill="none" xmlns="http://www.w3.org/2000/svg">
<g clip-path="url(#clip0_3960_136785)">
<mask id="mask0_3960_136785" style="mask-type:luminance" maskUnits="userSpaceOnUse" x="163" y="0" width="7" height="9">
<path d="M166.841 0.320312C168.627 0.320312 169.7 1.51797 169.712 4.42217C169.7 7.31504 168.627 8.51309 166.841 8.51309C165.056 8.51309 163.982 7.31504 163.971 4.42217C163.982 1.51797 165.056 0.320312 166.841 0.320312ZM168.525 2.62548L165.384 6.79524C165.712 7.42802 166.22 7.66548 166.841 7.66548C167.96 7.66548 168.706 6.88578 168.717 4.42217C168.717 3.67641 168.65 3.0887 168.525 2.62548ZM166.841 1.16792C165.723 1.16792 164.977 1.925 164.966 4.42217C164.966 5.0889 165.022 5.64285 165.135 6.08343L168.243 1.93631C167.915 1.37124 167.429 1.16792 166.841 1.16792Z" fill="white"/>
</mask>
<g mask="url(#mask0_3960_136785)">
<path d="M163.971 0.320312H169.712V8.51309H163.971V0.320312Z" fill="#0E2F61"/>
</g>
<mask id="mask1_3960_136785" style="mask-type:luminance" maskUnits="userSpaceOnUse" x="164" y="10" width="6" height="9">
<path d="M167.034 10.5176C168.333 10.5176 169.192 11.1956 169.429 12.4612L168.412 12.6871C168.231 11.7831 167.768 11.3652 167.022 11.3652C165.779 11.3652 165.146 12.4272 165.101 14.4276C165.463 13.7156 166.197 13.2975 167.09 13.2975C168.571 13.2975 169.519 14.3597 169.519 15.9757C169.519 17.6142 168.469 18.7104 166.932 18.7104C165.056 18.7104 164.107 17.3543 164.107 14.789C164.107 12.0544 165.146 10.5176 167.034 10.5176ZM166.898 14.1449C166.039 14.1449 165.406 14.6987 165.135 15.7383C165.259 17.0265 165.926 17.8627 166.943 17.8627C167.893 17.8627 168.503 17.1283 168.503 15.987C168.503 14.8682 167.893 14.1449 166.898 14.1449Z" fill="white"/>
</mask>
<g mask="url(#mask1_3960_136785)">
<path d="M164.107 10.5176H169.519V18.7104H164.107V10.5176Z" fill="#0E2F61"/>
</g>
<mask id="mask2_3960_136785" style="mask-type:luminance" maskUnits="userSpaceOnUse" x="161" y="10" width="17" height="26">
<path d="M176.487 10.2119C177.15 10.2119 177.688 10.7493 177.688 11.4123V23.7795C177.688 23.7992 177.687 23.8189 177.686 23.8386C177.678 24.0031 177.584 25.49 176.779 27.0228C175.983 28.5413 174.353 30.351 171.116 30.351H167.301C168.182 31.5458 168.66 32.9305 168.83 33.9069C168.944 34.56 168.506 35.1817 167.853 35.2952C167.784 35.3075 167.714 35.3134 167.646 35.3134C167.074 35.3134 166.568 34.9034 166.465 34.3218C166.434 34.151 165.699 30.2929 162.627 30.2929C161.964 30.2929 161.427 29.7553 161.427 29.0923C161.427 28.4293 161.964 27.8919 162.627 27.8919C163.891 27.8919 164.872 27.2816 165.627 26.026C166.133 25.1832 166.365 24.3113 166.438 23.9907L166.447 23.9504C166.459 23.8954 166.465 23.8644 166.465 23.8626C166.583 23.2117 167.205 22.7762 167.857 22.8921C168.508 23.0076 168.943 23.6262 168.83 24.2779C168.655 25.2863 168.149 26.7298 167.211 27.9501H171.116C172.775 27.9501 173.932 27.282 174.653 25.9073C175.177 24.9101 175.275 23.8962 175.287 23.7407V11.4123C175.287 10.7493 175.824 10.2119 176.487 10.2119Z" fill="white"/>
</mask>
<g mask="url(#mask2_3960_136785)">
<path d="M161.427 10.2119H177.688V35.3134H161.427V10.2119Z" fill="#CD0E2C"/>
</g>
<mask id="mask3_3960_136785" style="mask-type:luminance" maskUnits="userSpaceOnUse" x="157" y="0" width="6" height="9">
<path d="M160.242 0.320312C161.768 0.320312 162.683 1.16792 162.683 2.69339C162.683 3.8007 162.129 4.76129 160.92 5.87992C160.31 6.44519 159.756 6.89709 158.988 7.42802H162.773V8.34353H157.62V7.50724C158.265 7.0327 159.281 6.21904 160.287 5.25846C161.282 4.29807 161.621 3.64246 161.621 2.7047C161.621 1.74412 161.09 1.20187 160.186 1.20187C159.27 1.20187 158.716 1.75543 158.716 2.61436C158.716 2.81768 158.75 3.05495 158.807 3.33748L157.79 3.23582C157.733 3.00968 157.711 2.80656 157.711 2.60304C157.711 1.213 158.66 0.320312 160.242 0.320312Z" fill="white"/>
</mask>
<g mask="url(#mask3_3960_136785)">
<path d="M157.62 0.320312H162.773V8.34353H157.62V0.320312Z" fill="#0E2F61"/>
</g>
<mask id="mask4_3960_136785" style="mask-type:luminance" maskUnits="userSpaceOnUse" x="157" y="10" width="6" height="9">
<path d="M160.242 10.5176C161.768 10.5176 162.683 11.3652 162.683 12.8907C162.683 13.998 162.129 14.9586 160.92 16.0772C160.31 16.6425 159.756 17.0944 158.988 17.6253H162.773V18.5408H157.62V17.7045C158.265 17.23 159.281 16.4163 160.287 15.4557C161.282 14.4953 161.621 13.8397 161.621 12.902C161.621 11.9414 161.09 11.3991 160.186 11.3991C159.27 11.3991 158.716 11.9527 158.716 12.8116C158.716 13.0149 158.75 13.2522 158.807 13.5347L157.79 13.4331C157.733 13.2069 157.711 13.0038 157.711 12.8003C157.711 11.4103 158.66 10.5176 160.242 10.5176Z" fill="white"/>
</mask>
<g mask="url(#mask4_3960_136785)">
<path d="M157.62 10.5176H162.773V18.5408H157.62V10.5176Z" fill="#0E2F61"/>
</g>
<mask id="mask5_3960_136785" style="mask-type:luminance" maskUnits="userSpaceOnUse" x="91" y="16" width="11" height="20">
<path d="M100.759 16.333C101.23 16.333 101.596 16.6994 101.596 17.1709V30.1578C101.596 33.6142 99.4496 35.316 96.4646 35.316C93.0868 35.316 91.097 33.2998 91.097 29.0058C91.097 24.7117 92.9821 22.7217 96.3598 22.7217C98.0357 22.7217 99.3186 23.5857 99.9208 24.4235V17.1709C99.9208 16.6994 100.287 16.333 100.759 16.333ZM96.4646 24.2403C94.082 24.2403 92.7727 25.7853 92.7727 29.0058C92.7727 32.2788 94.0556 33.7974 96.4646 33.7974C98.4808 33.7974 99.9208 32.6452 99.9208 30.1578V26.5445C99.9208 26.5445 98.9259 24.2403 96.4646 24.2403Z" fill="white"/>
</mask>
<g mask="url(#mask5_3960_136785)">
<path d="M91.097 16.333H101.596V35.316H91.097V16.333Z" fill="#0E2F61"/>
</g>
<mask id="mask6_3960_136785" style="mask-type:luminance" maskUnits="userSpaceOnUse" x="104" y="18" width="3" height="18">
<path d="M105.812 22.8786C106.283 22.8786 106.65 23.245 106.65 23.7165V34.3469C106.65 34.8183 106.283 35.1848 105.812 35.1848C105.341 35.1848 104.974 34.8183 104.974 34.3469V23.7165C104.974 23.245 105.341 22.8786 105.812 22.8786ZM105.812 18.375C106.44 18.375 106.807 18.663 106.807 19.4224C106.807 20.0507 106.44 20.4173 105.812 20.4173C105.184 20.4173 104.817 20.0507 104.817 19.4224C104.817 18.663 105.184 18.375 105.812 18.375Z" fill="white"/>
</mask>
<g mask="url(#mask6_3960_136785)">
<path d="M104.817 18.375H106.807V35.1848H104.817V18.375Z" fill="#0E2F61"/>
</g>
<mask id="mask7_3960_136785" style="mask-type:luminance" maskUnits="userSpaceOnUse" x="109" y="22" width="11" height="19">
<path d="M114.688 22.7217C117.673 22.7217 119.925 24.4499 119.925 27.9061V35.2112C119.925 38.7724 117.489 40.2386 114.557 40.2386C112.514 40.2386 111.048 39.4793 110.184 38.4319C110.106 38.3271 110.027 38.1701 110.027 37.9605C110.027 37.5154 110.394 37.149 110.839 37.149C111.048 37.149 111.232 37.2013 111.467 37.437C112.069 38.0391 112.907 38.6674 114.557 38.6674C116.704 38.6674 118.223 37.5941 118.223 35.2112V33.7188C117.594 34.5305 116.39 35.316 114.688 35.316C111.284 35.316 109.268 33.3262 109.268 29.0319C109.268 24.7379 111.284 22.7217 114.688 22.7217ZM114.688 24.2403C112.279 24.2403 110.944 25.7589 110.944 29.0319C110.944 32.2526 112.279 33.7974 114.688 33.7974C117.149 33.7974 118.223 31.6764 118.223 31.6764V27.9061C118.223 25.4187 116.651 24.2403 114.688 24.2403Z" fill="white"/>
</mask>
<g mask="url(#mask7_3960_136785)">
<path d="M109.268 22.7217H119.925V40.2386H109.268V22.7217Z" fill="#0E2F61"/>
</g>
<mask id="mask8_3960_136785" style="mask-type:luminance" maskUnits="userSpaceOnUse" x="122" y="18" width="3" height="18">
<path d="M123.826 22.8786C124.297 22.8786 124.663 23.245 124.663 23.7165V34.3469C124.663 34.8183 124.297 35.1848 123.826 35.1848C123.354 35.1848 122.988 34.8183 122.988 34.3469V23.7165C122.988 23.245 123.354 22.8786 123.826 22.8786ZM123.826 18.375C124.454 18.375 124.821 18.663 124.821 19.4224C124.821 20.0507 124.454 20.4173 123.826 20.4173C123.197 20.4173 122.831 20.0507 122.831 19.4224C122.831 18.663 123.197 18.375 123.826 18.375Z" fill="white"/>
</mask>
<g mask="url(#mask8_3960_136785)">
<path d="M122.831 18.375H124.821V35.1848H122.831V18.375Z" fill="#0E2F61"/>
</g>
<mask id="mask9_3960_136785" style="mask-type:luminance" maskUnits="userSpaceOnUse" x="126" y="19" width="7" height="17">
<path d="M129.56 19.501C130.031 19.501 130.397 19.8936 130.397 20.3388V23.0881H132.099C132.545 23.0881 132.885 23.4284 132.885 23.8737C132.885 24.3187 132.545 24.659 132.099 24.659H130.397V31.8858C130.397 33.0116 131.026 33.614 131.916 33.614C132.361 33.614 132.728 33.9542 132.728 34.3995C132.728 34.8444 132.361 35.1849 131.916 35.1849C129.848 35.1849 128.722 33.7972 128.722 31.8858V24.659H127.701C127.255 24.659 126.915 24.3187 126.915 23.8737C126.915 23.4284 127.255 23.0881 127.701 23.0881H128.722V20.3388C128.722 19.8936 129.115 19.501 129.56 19.501Z" fill="white"/>
</mask>
<g mask="url(#mask9_3960_136785)">
<path d="M126.915 19.501H132.885V35.1849H126.915V19.501Z" fill="#0E2F61"/>
</g>
<mask id="mask10_3960_136785" style="mask-type:luminance" maskUnits="userSpaceOnUse" x="134" y="22" width="11" height="14">
<path d="M139.745 22.7217C142.782 22.7217 144.458 24.502 144.458 27.1728V34.3732C144.458 34.8185 144.091 35.1849 143.646 35.1849C143.201 35.1849 142.834 34.8185 142.834 34.3732V33.4308C142.18 34.6612 140.661 35.3158 139.09 35.3158C136.315 35.3158 134.56 33.9806 134.56 31.5716C134.56 29.2674 136.315 27.8797 139.143 27.8797H142.834V27.1728C142.834 25.3923 141.656 24.2926 139.745 24.2926C138.357 24.2926 137.519 24.7115 136.707 25.628C136.446 25.9158 136.262 25.9945 136.027 25.9945C135.608 25.9945 135.267 25.6542 135.267 25.2352C135.267 25.052 135.32 24.9211 135.398 24.79C136.131 23.638 137.545 22.7217 139.745 22.7217ZM142.834 29.3461H139.143C137.441 29.3461 136.262 30.053 136.262 31.5716C136.262 32.9332 137.205 33.7972 139.247 33.7972C141.08 33.7972 142.834 32.6713 142.834 30.4458V29.3461Z" fill="white"/>
</mask>
<g mask="url(#mask10_3960_136785)">
<path d="M134.56 22.7217H144.458V35.3158H134.56V22.7217Z" fill="#0E2F61"/>
</g>
<mask id="mask11_3960_136785" style="mask-type:luminance" maskUnits="userSpaceOnUse" x="147" y="16" width="5" height="20">
<path d="M148.438 16.333C148.909 16.333 149.275 16.7256 149.275 17.1709V32.1217C149.275 33.1689 149.616 33.6142 150.323 33.6142C150.742 33.6142 151.108 33.9545 151.108 34.3997C151.108 34.8446 150.742 35.1851 150.323 35.1851C148.568 35.1851 147.6 34.1377 147.6 32.1217V17.1709C147.6 16.7256 147.992 16.333 148.438 16.333Z" fill="white"/>
</mask>
<g mask="url(#mask11_3960_136785)">
<path d="M147.6 16.333H151.108V35.1851H147.6V16.333Z" fill="#0E2F61"/>
</g>
<mask id="mask12_3960_136785" style="mask-type:luminance" maskUnits="userSpaceOnUse" x="83" y="19" width="2" height="20">
<path d="M84.037 19.9238C84.4684 19.9238 84.8183 20.2737 84.8183 20.7051V37.6226C84.8183 38.054 84.4684 38.4038 84.037 38.4038C83.6056 38.4038 83.2557 38.054 83.2557 37.6226V20.7051C83.2557 20.2737 83.6056 19.9238 84.037 19.9238Z" fill="white"/>
</mask>
<g mask="url(#mask12_3960_136785)">
<path d="M83.2557 19.9238H84.8183V38.4038H83.2557V19.9238Z" fill="#CD0E2C"/>
</g>
<mask id="mask13_3960_136785" style="mask-type:luminance" maskUnits="userSpaceOnUse" x="3" y="17" width="13" height="18">
<path d="M14.0495 17.0781C14.5207 17.0781 14.8612 17.4186 14.8612 17.8898V19.8799C14.8612 20.3513 14.5207 20.6916 14.0495 20.6916C13.6044 20.6916 13.2378 20.3513 13.2378 19.8799V18.7015H6.53477V25.0118H12.2952C12.7402 25.0118 13.1069 25.3784 13.1069 25.8235C13.1069 26.2688 12.7402 26.6352 12.2952 26.6352H6.53477V33.0764H13.5258V31.8982C13.5258 31.4268 13.8924 31.0863 14.3375 31.0863C14.8089 31.0863 15.1492 31.4268 15.1492 31.8982V33.9929C15.0969 34.4118 14.7564 34.6998 14.3375 34.6998H3.81165C3.34043 34.6998 2.99994 34.3595 2.99994 33.8881C2.99994 33.443 3.34043 33.0764 3.81165 33.0764H4.75428V18.7015H3.81165C3.34043 18.7015 2.99994 18.3612 2.99994 17.8898C2.99994 17.4448 3.34043 17.0781 3.81165 17.0781H14.0495Z" fill="white"/>
</mask>
<g mask="url(#mask13_3960_136785)">
<path d="M2.99994 17.0781H15.1492V34.6998H2.99994V17.0781Z" fill="#FFCD00"/>
</g>
<mask id="mask14_3960_136785" style="mask-type:luminance" maskUnits="userSpaceOnUse" x="15" y="22" width="11" height="14">
<path d="M20.5165 22.4717C22.297 22.4717 23.6849 23.0738 24.4964 24.1474C24.5751 24.2522 24.6799 24.4092 24.6799 24.6449C24.6799 25.0639 24.3394 25.4042 23.9204 25.4042C23.7895 25.4042 23.5799 25.3782 23.3706 25.1687C22.6637 24.4879 21.8781 24.0689 20.5165 24.0689C19.3384 24.0689 18.1862 24.4356 18.1862 25.6399C18.1862 28.3891 25.0724 27.3681 25.0724 31.5573C25.0724 33.9402 23.1087 35.0137 20.6213 35.0137C18.4744 35.0137 16.8246 33.9925 16.144 33.1285C16.0131 32.945 15.9606 32.8143 15.9606 32.6311C15.9606 32.212 16.3011 31.8717 16.72 31.8717C16.8771 31.8717 17.0865 31.924 17.296 32.1335C18.1078 32.945 19.155 33.4165 20.6213 33.4165C22.1138 33.4165 23.3967 32.9191 23.3967 31.5573C23.3967 28.8606 16.5105 29.9341 16.5105 25.6399C16.5105 23.4668 18.291 22.4717 20.5165 22.4717Z" fill="white"/>
</mask>
<g mask="url(#mask14_3960_136785)">
<path d="M15.9606 22.4717H25.0724V35.0137H15.9606V22.4717Z" fill="#FFCD00"/>
</g>
<mask id="mask15_3960_136785" style="mask-type:luminance" maskUnits="userSpaceOnUse" x="25" y="22" width="14" height="18">
<path d="M32.8228 22.4463C36.2267 22.4463 38.2951 24.4363 38.2951 28.7304C38.2951 33.0244 36.2267 35.0406 32.8228 35.0406C31.0684 35.0406 29.8116 34.098 29.2618 33.2078V38.392H30.6233C31.0684 38.392 31.4087 38.7325 31.4087 39.1776C31.4087 39.6227 31.0684 39.9632 30.6233 39.9632H26.4864C26.0411 39.9632 25.7008 39.6227 25.7008 39.1776C25.7008 38.7325 26.0411 38.392 26.4864 38.392H27.5859V24.3838H26.4864C26.0411 24.3838 25.7008 24.0436 25.7008 23.5985C25.7008 23.1532 26.0411 22.8129 26.4864 22.8129H28.4762C28.9213 22.8129 29.2618 23.1532 29.2618 23.5985V24.2791C29.7591 23.3889 31.0684 22.4463 32.8228 22.4463ZM32.7705 23.9649C30.8327 23.9649 29.2093 25.3265 29.2093 28.7304C29.2093 32.1079 30.7804 33.522 32.8228 33.522C35.2315 33.522 36.5931 32.0034 36.5931 28.7304C36.5931 25.4574 35.1792 23.9649 32.7705 23.9649Z" fill="white"/>
</mask>
<g mask="url(#mask15_3960_136785)">
<path d="M25.7008 22.4463H38.2951V39.9632H25.7008V22.4463Z" fill="#FFCD00"/>
</g>
<mask id="mask16_3960_136785" style="mask-type:luminance" maskUnits="userSpaceOnUse" x="39" y="22" width="13" height="14">
<path d="M44.4475 22.4463C47.4848 22.4463 49.1605 24.2268 49.1605 26.8974V33.1292H50.2602C50.7055 33.1292 51.0458 33.4697 51.0458 33.9148C51.0458 34.3599 50.7055 34.7001 50.2602 34.7001H48.2703C47.8776 34.7001 47.668 34.3337 47.668 34.0194V33.1554C47.0134 34.386 45.364 35.0406 43.7929 35.0406C41.0175 35.0406 39.2631 33.7052 39.2631 31.2964C39.2631 28.992 41.0175 27.6045 43.8452 27.6045H47.5373V26.8974C47.5373 25.1169 46.3589 24.0172 44.4475 24.0172C43.0598 24.0172 42.2218 24.4363 41.4102 25.3526C41.1484 25.6406 40.965 25.7193 40.7295 25.7193C40.3105 25.7193 39.97 25.379 39.97 24.96C39.97 24.7766 40.0225 24.6457 40.101 24.5148C40.8342 23.3626 42.2481 22.4463 44.4475 22.4463ZM47.5373 29.0707H43.8452C42.1433 29.0707 40.965 29.7776 40.965 31.2964C40.965 32.6578 41.9078 33.522 43.95 33.522C45.7829 33.522 47.5373 32.3959 47.5373 30.1706V29.0707Z" fill="white"/>
</mask>
<g mask="url(#mask16_3960_136785)">
<path d="M39.2631 22.4463H51.0458V35.0406H39.2631V22.4463Z" fill="#FFCD00"/>
</g>
<mask id="mask17_3960_136785" style="mask-type:luminance" maskUnits="userSpaceOnUse" x="51" y="18" width="15" height="17">
<path d="M58.3506 22.4461C62.383 22.4461 63.1685 24.8549 63.1685 27.0804V33.1288H64.2682C64.7133 33.1288 65.0536 33.4693 65.0536 33.9144C65.0536 34.3597 64.7133 34.7 64.2682 34.7H60.3929C59.9478 34.7 59.6075 34.3597 59.6075 33.9144C59.6075 33.4693 59.9478 33.1288 60.3929 33.1288H61.4928V27.4209C61.4928 25.3524 60.8905 23.9386 58.3506 23.9386C55.9418 23.9386 54.8682 25.5095 54.8682 27.6043V33.1288H55.9679C56.4132 33.1288 56.7535 33.4693 56.7535 33.9144C56.7535 34.3597 56.4132 34.7 55.9679 34.7H52.0928C51.6477 34.7 51.3073 34.3597 51.3073 33.9144C51.3073 33.4693 51.6477 33.1288 52.0928 33.1288H53.1925V24.3835H52.0928C51.6477 24.3835 51.3073 24.0432 51.3073 23.5981C51.3073 23.153 51.6477 22.8127 52.0928 22.8127H54.0827C54.5279 22.8127 54.8682 23.153 54.8682 23.5981V24.2789C55.3658 23.284 56.6489 22.4461 58.3506 22.4461ZM61.7283 18.6494C62.0425 18.6494 62.3307 18.9374 62.3307 19.2516C62.3307 19.9323 61.3094 20.8488 60.0788 20.8488C58.8481 20.8488 58.1937 19.88 57.1463 19.88C56.6226 19.88 56.3607 20.0894 55.9941 20.587C55.9156 20.6654 55.7847 20.8488 55.4967 20.8488C55.1824 20.8488 54.8944 20.587 54.8944 20.2467C54.8944 19.5396 55.9679 18.6494 57.1463 18.6494C58.3769 18.6494 59.0575 19.6182 60.0788 19.6182C60.6025 19.6182 60.8643 19.4088 61.231 18.9374C61.3094 18.8326 61.4403 18.6494 61.7283 18.6494Z" fill="white"/>
</mask>
<g mask="url(#mask17_3960_136785)">
<path d="M51.3073 18.6494H65.0536V34.7H51.3073V18.6494Z" fill="#FFCD00"/>
</g>
<mask id="mask18_3960_136785" style="mask-type:luminance" maskUnits="userSpaceOnUse" x="65" y="22" width="13" height="14">
<path d="M70.5256 22.4463C73.5629 22.4463 75.2386 24.2268 75.2386 26.8974V33.1292H76.3385C76.7836 33.1292 77.1239 33.4697 77.1239 33.9148C77.1239 34.3599 76.7836 34.7001 76.3385 34.7001H74.3485C73.9557 34.7001 73.7463 34.3337 73.7463 34.0194V33.1554C73.0917 34.386 71.4421 35.0406 69.871 35.0406C67.0956 35.0406 65.3414 33.7052 65.3414 31.2964C65.3414 28.992 67.0956 27.6045 69.9235 27.6045H73.6154V26.8974C73.6154 25.1169 72.437 24.0172 70.5256 24.0172C69.1379 24.0172 68.3001 24.4363 67.4884 25.3526C67.2265 25.6406 67.0433 25.7193 66.8076 25.7193C66.3887 25.7193 66.0484 25.379 66.0484 24.96C66.0484 24.7766 66.1007 24.6457 66.1793 24.5148C66.9124 23.3626 68.3262 22.4463 70.5256 22.4463ZM73.6154 29.0707H69.9235C68.2216 29.0707 67.0433 29.7776 67.0433 31.2964C67.0433 32.6578 67.9859 33.522 70.0283 33.522C71.861 33.522 73.6154 32.3959 73.6154 30.1706V29.0707Z" fill="white"/>
</mask>
<g mask="url(#mask18_3960_136785)">
<path d="M65.3414 22.4463H77.1239V35.0406H65.3414V22.4463Z" fill="#FFCD00"/>
</g>
</g>
<defs>
<clipPath id="clip0_3960_136785">
<rect width="180" height="40" fill="white" transform="translate(0 0.320312)"/>
</clipPath>
</defs>
</svg>
