<svg width="180" height="41" viewBox="0 0 180 41" fill="none" xmlns="http://www.w3.org/2000/svg">
<g clip-path="url(#clip0_3960_136222)">
<mask id="mask0_3960_136222" style="mask-type:luminance" maskUnits="userSpaceOnUse" x="6" y="0" width="61" height="41">
<path d="M66.2218 0.841797V40.8564H6.2002V0.841797H66.2218Z" fill="white"/>
</mask>
<g mask="url(#mask0_3960_136222)">
<path d="M6.2002 0.841797H66.2218V40.8564H6.2002V0.841797Z" fill="#184688"/>
</g>
<mask id="mask1_3960_136222" style="mask-type:luminance" maskUnits="userSpaceOnUse" x="34" y="5" width="5" height="5">
<path d="M36.199 5.62891L36.6843 7.14171H38.2701L36.9835 8.06594L37.4658 9.56076L36.199 8.63653L34.9325 9.56076L35.4144 8.06594L34.1289 7.14171L35.7137 7.1434L36.199 5.62891Z" fill="white"/>
</mask>
<g mask="url(#mask1_3960_136222)">
<path d="M34.1289 5.62891H38.2701V9.56076H34.1289V5.62891Z" fill="#F9EB31"/>
</g>
<mask id="mask2_3960_136222" style="mask-type:luminance" maskUnits="userSpaceOnUse" x="27" y="7" width="5" height="5">
<path d="M29.644 7.3877L30.1291 8.90219H31.7149L30.4292 9.82643L30.9104 11.3212L29.6446 10.397L28.3782 11.3212L28.8592 9.82643L27.5737 8.90219L29.1587 8.90389L29.644 7.3877Z" fill="white"/>
</mask>
<g mask="url(#mask2_3960_136222)">
<path d="M27.5737 7.3877H31.7149V11.3212H27.5737V7.3877Z" fill="#F9EB31"/>
</g>
<mask id="mask3_3960_136222" style="mask-type:luminance" maskUnits="userSpaceOnUse" x="22" y="12" width="5" height="5">
<path d="M24.8489 12.1943L25.3342 13.7088H26.9189L25.6334 14.6331L26.1153 16.1279L24.8489 15.2036L23.5824 16.1279L24.0643 14.6331L22.7788 13.7088L24.3636 13.7105L24.8489 12.1943Z" fill="white"/>
</mask>
<g mask="url(#mask3_3960_136222)">
<path d="M22.7788 12.1943H26.9189V16.1279H22.7788V12.1943Z" fill="#F9EB31"/>
</g>
<mask id="mask4_3960_136222" style="mask-type:luminance" maskUnits="userSpaceOnUse" x="21" y="18" width="5" height="5">
<path d="M23.0895 18.7402L23.5747 20.2547H25.1595L23.874 21.1792L24.3553 22.6736L23.0895 21.7495L21.823 22.6736L22.3049 21.1792L21.0186 20.2547L22.6042 20.2581L23.0895 18.7402Z" fill="white"/>
</mask>
<g mask="url(#mask4_3960_136222)">
<path d="M21.0186 18.7402H25.1595V22.6736H21.0186V18.7402Z" fill="#F9EB31"/>
</g>
<mask id="mask5_3960_136222" style="mask-type:luminance" maskUnits="userSpaceOnUse" x="22" y="25" width="5" height="5">
<path d="M24.8489 25.3066L25.3342 26.8211H26.9189L25.6334 27.7452L26.1153 29.2402L24.8489 28.3143L23.5824 29.2402L24.0643 27.7452L22.7788 26.8211L24.3636 26.8228L24.8489 25.3066Z" fill="white"/>
</mask>
<g mask="url(#mask5_3960_136222)">
<path d="M22.7788 25.3066H26.9189V29.2402H22.7788V25.3066Z" fill="#F9EB31"/>
</g>
<mask id="mask6_3960_136222" style="mask-type:luminance" maskUnits="userSpaceOnUse" x="27" y="30" width="5" height="5">
<path d="M29.6535 30.1133L30.1388 31.6259H31.7244L30.4389 32.5501L30.92 34.0451L29.6544 33.1209L28.3879 34.0451L28.869 32.5501L27.5835 31.6259L29.1691 31.6278L29.6535 30.1133Z" fill="white"/>
</mask>
<g mask="url(#mask6_3960_136222)">
<path d="M27.5835 30.1133H31.7244V34.0451H27.5835V30.1133Z" fill="#F9EB31"/>
</g>
<mask id="mask7_3960_136222" style="mask-type:luminance" maskUnits="userSpaceOnUse" x="34" y="31" width="5" height="5">
<path d="M36.1994 31.8525L36.6847 33.367H38.2703L36.984 34.2913L37.4661 35.7861L36.2003 34.8616L34.9338 35.7861L35.4149 34.2913L34.1294 33.367L35.715 33.3687L36.1994 31.8525Z" fill="white"/>
</mask>
<g mask="url(#mask7_3960_136222)">
<path d="M34.1294 31.8525H38.2703V35.7861H34.1294V31.8525Z" fill="#F9EB31"/>
</g>
<mask id="mask8_3960_136222" style="mask-type:luminance" maskUnits="userSpaceOnUse" x="40" y="30" width="5" height="5">
<path d="M42.7466 30.1133L43.231 31.6259H44.8167L43.5303 32.5501L44.0131 34.0451L42.7466 33.1209L41.4801 34.0451L41.9612 32.5501L40.6768 31.6259L42.2605 31.6278L42.7466 30.1133Z" fill="white"/>
</mask>
<g mask="url(#mask8_3960_136222)">
<path d="M40.6768 30.1133H44.8167V34.0451H40.6768V30.1133Z" fill="#F9EB31"/>
</g>
<mask id="mask9_3960_136222" style="mask-type:luminance" maskUnits="userSpaceOnUse" x="45" y="25" width="5" height="5">
<path d="M47.5513 25.3066L48.0374 26.8211H49.6213L48.335 27.7452L48.8177 29.2402L47.5513 28.3143L46.285 29.2402L46.7676 27.7452L45.4814 26.8211L47.0651 26.8228L47.5513 25.3066Z" fill="white"/>
</mask>
<g mask="url(#mask9_3960_136222)">
<path d="M45.4814 25.3066H49.6213V29.2402H45.4814V25.3066Z" fill="#F9EB31"/>
</g>
<mask id="mask10_3960_136222" style="mask-type:luminance" maskUnits="userSpaceOnUse" x="47" y="18" width="5" height="5">
<path d="M49.291 18.7227L49.7771 20.2372H51.3627L50.0764 21.1614L50.5572 22.656L49.291 21.7303L48.0258 22.656L48.5073 21.1614L47.2207 20.2372L48.8065 20.2388L49.291 18.7227Z" fill="white"/>
</mask>
<g mask="url(#mask10_3960_136222)">
<path d="M47.2207 18.7227H51.3627V22.656H47.2207V18.7227Z" fill="#F9EB31"/>
</g>
<mask id="mask11_3960_136222" style="mask-type:luminance" maskUnits="userSpaceOnUse" x="45" y="12" width="5" height="5">
<path d="M47.5513 12.1768L48.0374 13.6913H49.6216L48.3352 14.6138L48.818 16.1084L47.5513 15.1844L46.285 16.1084L46.7676 14.6138L45.4814 13.6913L47.0654 13.6929L47.5513 12.1768Z" fill="white"/>
</mask>
<g mask="url(#mask11_3960_136222)">
<path d="M45.4814 12.1768H49.6216V16.1084H45.4814V12.1768Z" fill="#F9EB31"/>
</g>
<mask id="mask12_3960_136222" style="mask-type:luminance" maskUnits="userSpaceOnUse" x="40" y="7" width="5" height="5">
<path d="M42.7651 7.38965L43.2493 8.90245H44.8366L43.5505 9.82838L44.0313 11.3232L42.7668 10.3973L41.4984 11.3232L41.9795 9.82838L40.6948 8.90245L42.2806 8.90584L42.7651 7.38965Z" fill="white"/>
</mask>
<g mask="url(#mask12_3960_136222)">
<path d="M40.6948 7.38965H44.8366V11.3232H40.6948V7.38965Z" fill="#F9EB31"/>
</g>
<mask id="mask13_3960_136222" style="mask-type:luminance" maskUnits="userSpaceOnUse" x="73" y="0" width="7" height="10">
<path d="M79.78 0.839844V2.35201H75.457V4.46778H79.1884V5.97974H75.457V9.77826H73.6523V0.839844H79.78Z" fill="white"/>
</mask>
<g mask="url(#mask13_3960_136222)">
<path d="M73.6523 0.839844H79.78V9.77826H73.6523V0.839844Z" fill="#184688"/>
</g>
<mask id="mask14_3960_136222" style="mask-type:luminance" maskUnits="userSpaceOnUse" x="81" y="0" width="2" height="10">
<path d="M82.9688 3.30312V9.77826H81.2554V3.30312H82.9688ZM82.9688 0.839844V2.42503H81.2554V0.839844H82.9688Z" fill="white"/>
</mask>
<g mask="url(#mask14_3960_136222)">
<path d="M81.2554 0.839844H82.9688V9.77826H81.2554V0.839844Z" fill="#184688"/>
</g>
<mask id="mask15_3960_136222" style="mask-type:luminance" maskUnits="userSpaceOnUse" x="84" y="3" width="7" height="7">
<path d="M88.438 3.15723C88.816 3.15723 89.1614 3.22516 89.4746 3.36146C89.7874 3.49754 90.0242 3.6713 90.1848 3.88273C90.3453 4.09416 90.457 4.33395 90.5201 4.60209C90.5832 4.87045 90.6149 5.25458 90.6149 5.75448V9.7786H88.9015V6.47405C88.9015 5.77479 88.8648 5.32273 88.7916 5.11723C88.7186 4.91215 88.5997 4.75257 88.435 4.63871C88.2704 4.52506 88.0723 4.46813 87.8405 4.46813C87.5438 4.46813 87.2775 4.5494 87.0418 4.71194C86.806 4.87448 86.6445 5.08992 86.5571 5.35828C86.4697 5.62643 86.4261 6.12231 86.4261 6.8459V9.7786H84.7129V3.30347H86.304V4.25458C86.8689 3.52294 87.5804 3.15723 88.438 3.15723Z" fill="white"/>
</mask>
<g mask="url(#mask15_3960_136222)">
<path d="M84.7129 3.15723H90.6149V9.7786H84.7129V3.15723Z" fill="#184688"/>
</g>
<mask id="mask16_3960_136222" style="mask-type:luminance" maskUnits="userSpaceOnUse" x="91" y="3" width="7" height="7">
<path d="M94.8827 3.15723C95.6468 3.15723 96.2157 3.2476 96.5898 3.42855C96.9638 3.60929 97.2271 3.83913 97.3793 4.11744C97.5318 4.39596 97.608 4.90707 97.608 5.65077L97.5898 7.65077C97.5898 8.21987 97.6171 8.63955 97.6719 8.90961C97.727 9.18008 97.8294 9.46961 97.9799 9.7786H96.2851C96.2402 9.66474 96.1854 9.49606 96.1204 9.27257C96.0918 9.17098 96.0717 9.10389 96.0593 9.0713C95.7666 9.35596 95.4537 9.56929 95.1206 9.71151C94.7871 9.85373 94.4315 9.92485 94.0535 9.92485C93.3867 9.92485 92.8616 9.74411 92.4772 9.3822C92.0933 9.02051 91.9014 8.56336 91.9014 8.01035C91.9014 7.64463 91.9886 7.3185 92.1634 7.03172C92.338 6.74537 92.5828 6.5259 92.8982 6.37331C93.2131 6.22093 93.6671 6.08781 94.2607 5.97395C95.0614 5.82368 95.6163 5.68336 95.9253 5.55321V5.38262C95.9253 5.05331 95.844 4.8186 95.6815 4.67828C95.5187 4.53818 95.2118 4.46813 94.7606 4.46813C94.4559 4.46813 94.2182 4.52802 94.0474 4.64802C93.8768 4.76781 93.7384 4.97818 93.6328 5.27892L92.0781 4.9985C92.2527 4.37246 92.5536 3.90918 92.9803 3.60844C93.4072 3.3077 94.0413 3.15723 94.8827 3.15723ZM95.9253 6.66897C95.7058 6.7422 95.3583 6.82961 94.8827 6.9312C94.407 7.03299 94.0963 7.13246 93.9498 7.23003C93.7263 7.38855 93.6144 7.58982 93.6144 7.83363C93.6144 8.07342 93.7037 8.28082 93.8827 8.45543C94.0616 8.63045 94.2891 8.71765 94.5655 8.71765C94.8743 8.71765 95.1693 8.61606 95.4495 8.41289C95.6571 8.25839 95.793 8.0694 95.8582 7.8459C95.9028 7.69945 95.9253 7.42114 95.9253 7.01056V6.66897Z" fill="white"/>
</mask>
<g mask="url(#mask16_3960_136222)">
<path d="M91.9014 3.15723H97.9799V9.92485H91.9014V3.15723Z" fill="#184688"/>
</g>
<mask id="mask17_3960_136222" style="mask-type:luminance" maskUnits="userSpaceOnUse" x="99" y="3" width="7" height="7">
<path d="M103.01 3.15723C103.388 3.15723 103.733 3.22516 104.046 3.36146C104.359 3.49754 104.596 3.6713 104.757 3.88273C104.917 4.09416 105.029 4.33395 105.092 4.60209C105.155 4.87045 105.187 5.25458 105.187 5.75448V9.7786H103.473V6.47405C103.473 5.77479 103.437 5.32273 103.364 5.11723C103.29 4.91215 103.172 4.75257 103.007 4.63871C102.842 4.52506 102.644 4.46813 102.412 4.46813C102.116 4.46813 101.849 4.5494 101.614 4.71194C101.378 4.87448 101.216 5.08992 101.129 5.35828C101.041 5.62643 100.998 6.12231 100.998 6.8459V9.7786H99.2847V3.30347H100.876V4.25458C101.441 3.52294 102.152 3.15723 103.01 3.15723Z" fill="white"/>
</mask>
<g mask="url(#mask17_3960_136222)">
<path d="M99.2847 3.15723H105.187V9.7786H99.2847V3.15723Z" fill="#184688"/>
</g>
<mask id="mask18_3960_136222" style="mask-type:luminance" maskUnits="userSpaceOnUse" x="106" y="3" width="7" height="7">
<path d="M109.686 3.15723C110.475 3.15723 111.102 3.32696 111.567 3.66622C112.033 4.00569 112.367 4.52294 112.57 5.21797L110.881 5.52273C110.824 5.18559 110.695 4.93141 110.494 4.76061C110.293 4.59003 110.032 4.50453 109.711 4.50453C109.284 4.50453 108.943 4.65204 108.689 4.94664C108.435 5.24146 108.308 5.73416 108.308 6.42516C108.308 7.19342 108.437 7.73606 108.695 8.0531C108.954 8.37014 109.3 8.52866 109.735 8.52866C110.06 8.52866 110.326 8.43638 110.534 8.25119C110.741 8.06643 110.888 7.74834 110.973 7.29712L112.655 7.58368C112.481 8.35596 112.145 8.93924 111.649 9.33352C111.153 9.72781 110.489 9.92485 109.656 9.92485C108.709 9.92485 107.954 9.62622 107.391 9.02855C106.828 8.43109 106.546 7.604 106.546 6.54707C106.546 5.47828 106.829 4.6459 107.394 4.05035C107.959 3.455 108.723 3.15723 109.686 3.15723Z" fill="white"/>
</mask>
<g mask="url(#mask18_3960_136222)">
<path d="M106.546 3.15723H112.655V9.92485H106.546V3.15723Z" fill="#184688"/>
</g>
<mask id="mask19_3960_136222" style="mask-type:luminance" maskUnits="userSpaceOnUse" x="113" y="0" width="3" height="10">
<path d="M115.582 3.30312V9.77826H113.869V3.30312H115.582ZM115.582 0.839844V2.42503H113.869V0.839844H115.582Z" fill="white"/>
</mask>
<g mask="url(#mask19_3960_136222)">
<path d="M113.869 0.839844H115.582V9.77826H113.869V0.839844Z" fill="#184688"/>
</g>
<mask id="mask20_3960_136222" style="mask-type:luminance" maskUnits="userSpaceOnUse" x="116" y="3" width="7" height="7">
<path d="M119.869 3.15723C120.633 3.15723 121.202 3.2476 121.576 3.42855C121.95 3.60929 122.213 3.83913 122.365 4.11744C122.518 4.39596 122.594 4.90707 122.594 5.65077L122.576 7.65077C122.576 8.21987 122.603 8.63955 122.658 8.90961C122.713 9.18008 122.815 9.46961 122.966 9.7786H121.271C121.226 9.66474 121.171 9.49606 121.106 9.27257C121.078 9.17098 121.058 9.10389 121.045 9.0713C120.753 9.35596 120.44 9.56929 120.106 9.71151C119.773 9.85373 119.417 9.92485 119.039 9.92485C118.373 9.92485 117.847 9.74411 117.463 9.3822C117.079 9.02051 116.887 8.56336 116.887 8.01035C116.887 7.64463 116.974 7.3185 117.149 7.03172C117.324 6.74537 117.569 6.5259 117.884 6.37331C118.199 6.22093 118.653 6.08781 119.247 5.97395C120.047 5.82368 120.602 5.68336 120.911 5.55321V5.38262C120.911 5.05331 120.83 4.8186 120.668 4.67828C120.505 4.53818 120.198 4.46813 119.747 4.46813C119.442 4.46813 119.204 4.52802 119.033 4.64802C118.863 4.76781 118.724 4.97818 118.619 5.27892L117.064 4.9985C117.239 4.37246 117.539 3.90918 117.966 3.60844C118.393 3.3077 119.027 3.15723 119.869 3.15723ZM120.911 6.66897C120.692 6.7422 120.344 6.82961 119.869 6.9312C119.393 7.03299 119.082 7.13246 118.936 7.23003C118.712 7.38855 118.6 7.58982 118.6 7.83363C118.6 8.07342 118.69 8.28082 118.869 8.45543C119.047 8.63045 119.275 8.71765 119.552 8.71765C119.86 8.71765 120.155 8.61606 120.436 8.41289C120.643 8.25839 120.779 8.0694 120.844 7.8459C120.889 7.69945 120.911 7.42114 120.911 7.01056V6.66897Z" fill="white"/>
</mask>
<g mask="url(#mask20_3960_136222)">
<path d="M116.887 3.15723H122.966V9.92485H116.887V3.15723Z" fill="#184688"/>
</g>
<mask id="mask21_3960_136222" style="mask-type:luminance" maskUnits="userSpaceOnUse" x="123" y="0" width="8" height="10">
<path d="M130.221 0.839844V9.77826H128.63V8.82715C128.366 9.19709 128.054 9.47244 127.694 9.65318C127.334 9.83413 126.971 9.9245 126.606 9.9245C125.862 9.9245 125.225 9.62482 124.694 9.02524C124.164 8.42566 123.898 7.58947 123.898 6.51625C123.898 5.41889 124.157 4.58461 124.673 4.0136C125.189 3.44238 125.841 3.15688 126.63 3.15688C127.353 3.15688 127.979 3.45762 128.508 4.0591V0.839844H130.221ZM127.081 4.46778C126.675 4.46778 126.334 4.62926 126.06 4.95244C125.785 5.2754 125.648 5.75836 125.648 6.40048C125.648 7.09148 125.744 7.59138 125.935 7.90037C126.211 8.34757 126.597 8.57106 127.093 8.57106C127.487 8.57106 127.823 8.40344 128.099 8.06799C128.376 7.73275 128.514 7.2318 128.514 6.56513C128.514 5.82122 128.38 5.28577 128.111 4.95836C127.843 4.63138 127.5 4.46778 127.081 4.46778Z" fill="white"/>
</mask>
<g mask="url(#mask21_3960_136222)">
<path d="M123.898 0.839844H130.221V9.9245H123.898V0.839844Z" fill="#184688"/>
</g>
<mask id="mask22_3960_136222" style="mask-type:luminance" maskUnits="userSpaceOnUse" x="131" y="3" width="8" height="7">
<path d="M134.849 3.15723C135.828 3.15723 136.631 3.47532 137.257 4.1113C137.883 4.74749 138.196 5.5513 138.196 6.52273C138.196 7.50241 137.88 8.31426 137.248 8.9585C136.616 9.60273 135.82 9.92485 134.861 9.92485C134.267 9.92485 133.701 9.79067 133.163 9.52252C132.624 9.25416 132.215 8.86093 131.934 8.34284C131.654 7.82432 131.514 7.19342 131.514 6.4495C131.514 5.88061 131.654 5.32971 131.934 4.79723C132.215 4.26495 132.612 3.85839 133.126 3.57797C133.64 3.29733 134.215 3.15723 134.849 3.15723ZM134.855 4.55342C134.407 4.55342 134.032 4.72421 133.727 5.06559C133.422 5.40696 133.269 5.89881 133.269 6.54093C133.269 7.18326 133.422 7.67511 133.727 8.01649C134.032 8.35786 134.407 8.52866 134.855 8.52866C135.302 8.52866 135.677 8.35786 135.98 8.01649C136.283 7.67511 136.434 7.17924 136.434 6.52887C136.434 5.89479 136.283 5.40696 135.98 5.06559C135.677 4.72421 135.302 4.55342 134.855 4.55342Z" fill="white"/>
</mask>
<g mask="url(#mask22_3960_136222)">
<path d="M131.514 3.15723H138.196V9.92485H131.514V3.15723Z" fill="#184688"/>
</g>
<mask id="mask23_3960_136222" style="mask-type:luminance" maskUnits="userSpaceOnUse" x="142" y="3" width="8" height="10">
<path d="M146.573 3.15723C147.325 3.15723 147.963 3.45183 148.488 4.04125C149.012 4.63067 149.274 5.45183 149.274 6.50453C149.274 7.5858 149.01 8.42601 148.482 9.02559C147.953 9.62516 147.313 9.92485 146.561 9.92485C146.203 9.92485 145.879 9.85373 145.588 9.71151C145.298 9.56929 144.992 9.32548 144.671 8.97987V12.2419H142.958V3.30347H144.555V4.25458C144.762 3.9295 145.043 3.66537 145.396 3.46199C145.75 3.25881 146.142 3.15723 146.573 3.15723ZM146.11 4.51067C145.691 4.51067 145.344 4.67236 145.067 4.99532C144.791 5.31871 144.653 5.79723 144.653 6.4313C144.653 7.15892 144.797 7.69649 145.086 8.044C145.374 8.39151 145.726 8.56527 146.14 8.56527C146.539 8.56527 146.87 8.4059 147.134 8.08675C147.398 7.7676 147.53 7.24421 147.53 6.51659C147.53 5.83786 147.394 5.33373 147.122 5.00463C146.849 4.67532 146.512 4.51067 146.11 4.51067Z" fill="white"/>
</mask>
<g mask="url(#mask23_3960_136222)">
<path d="M142.958 3.15723H149.274V12.2419H142.958V3.15723Z" fill="#184688"/>
</g>
<mask id="mask24_3960_136222" style="mask-type:luminance" maskUnits="userSpaceOnUse" x="150" y="3" width="7" height="7">
<path d="M153.573 3.15723C154.553 3.15723 155.355 3.47532 155.981 4.1113C156.607 4.74749 156.92 5.5513 156.92 6.52273C156.92 7.50241 156.604 8.31426 155.972 8.9585C155.34 9.60273 154.544 9.92485 153.585 9.92485C152.992 9.92485 152.426 9.79067 151.887 9.52252C151.348 9.25416 150.939 8.86093 150.659 8.34284C150.378 7.82432 150.238 7.19342 150.238 6.4495C150.238 5.88061 150.378 5.32971 150.659 4.79723C150.939 4.26495 151.336 3.85839 151.85 3.57797C152.365 3.29733 152.939 3.15723 153.573 3.15723ZM153.579 4.55342C153.132 4.55342 152.756 4.72421 152.451 5.06559C152.146 5.40696 151.994 5.89881 151.994 6.54093C151.994 7.18326 152.146 7.67511 152.451 8.01649C152.756 8.35786 153.132 8.52866 153.579 8.52866C154.026 8.52866 154.401 8.35786 154.704 8.01649C155.007 7.67511 155.158 7.17924 155.158 6.52887C155.158 5.89479 155.007 5.40696 154.704 5.06559C154.401 4.72421 154.026 4.55342 153.579 4.55342Z" fill="white"/>
</mask>
<g mask="url(#mask24_3960_136222)">
<path d="M150.238 3.15723H156.92V9.92485H150.238V3.15723Z" fill="#184688"/>
</g>
<mask id="mask25_3960_136222" style="mask-type:luminance" maskUnits="userSpaceOnUse" x="158" y="3" width="5" height="7">
<path d="M161.255 3.15723C161.646 3.15723 162.021 3.26495 162.383 3.4804L161.853 4.97416C161.564 4.78707 161.296 4.69352 161.048 4.69352C160.808 4.69352 160.605 4.75977 160.438 4.89183C160.271 5.02389 160.14 5.26262 160.045 5.60823C159.953 5.94304 159.905 6.63238 159.902 7.67665L159.902 9.7786H158.188V3.30347H159.78V4.2241C160.052 3.7894 160.297 3.50284 160.515 3.36442C160.732 3.22622 160.979 3.15723 161.255 3.15723Z" fill="white"/>
</mask>
<g mask="url(#mask25_3960_136222)">
<path d="M158.188 3.15723H162.383V9.7786H158.188V3.15723Z" fill="#184688"/>
</g>
<mask id="mask26_3960_136222" style="mask-type:luminance" maskUnits="userSpaceOnUse" x="73" y="15" width="3" height="10">
<path d="M75.3412 15.8242V24.7626H73.6279V15.8242H75.3412Z" fill="white"/>
</mask>
<g mask="url(#mask26_3960_136222)">
<path d="M73.6279 15.8242H75.3412V24.7626H73.6279V15.8242Z" fill="#184688"/>
</g>
<mask id="mask27_3960_136222" style="mask-type:luminance" maskUnits="userSpaceOnUse" x="76" y="18" width="7" height="7">
<path d="M79.6276 18.1406C80.3919 18.1406 80.9608 18.2312 81.335 18.4122C81.7087 18.5929 81.9722 18.8227 82.1244 19.101C82.277 19.3794 82.3532 19.8907 82.3532 20.6344L82.3347 22.6342C82.3347 23.2033 82.3623 23.623 82.4171 23.8932C82.4721 24.1635 82.5745 24.4532 82.725 24.7622H81.03C80.9851 24.6483 80.9305 24.4797 80.8655 24.256C80.837 24.1544 80.8169 24.0873 80.8044 24.0549C80.5117 24.3396 80.1989 24.5527 79.8655 24.6949C79.5322 24.8371 79.1766 24.9085 78.7984 24.9085C78.1318 24.9085 77.6067 24.7277 77.2224 24.3658C76.8384 24.0041 76.6465 23.5468 76.6465 22.994C76.6465 22.6282 76.7337 22.3021 76.9085 22.0153C77.0831 21.729 77.328 21.5093 77.6431 21.3569C77.9582 21.2045 78.4122 21.0714 79.0058 20.9576C79.8065 20.8073 80.3614 20.667 80.6704 20.5368V20.3662C80.6704 20.0369 80.5889 19.8022 80.4266 19.6619C80.2638 19.5218 79.957 19.4515 79.5057 19.4515C79.201 19.4515 78.9633 19.5116 78.7925 19.6314C78.6217 19.7514 78.4835 19.9618 78.3779 20.2625L76.823 19.9821C76.9978 19.3561 77.2988 18.8928 77.7254 18.5918C78.1523 18.2911 78.7864 18.1406 79.6276 18.1406ZM80.6704 21.6526C80.4509 21.7258 80.1032 21.8132 79.6276 21.9146C79.1521 22.0164 78.8414 22.1161 78.695 22.2136C78.4715 22.3722 78.3595 22.5732 78.3595 22.817C78.3595 23.057 78.4488 23.2642 78.6279 23.439C78.8067 23.6139 79.0342 23.7013 79.3106 23.7013C79.6194 23.7013 79.9144 23.5995 80.1946 23.3963C80.4023 23.242 80.5381 23.0528 80.6033 22.8293C80.648 22.6828 80.6704 22.4045 80.6704 21.994V21.6526Z" fill="white"/>
</mask>
<g mask="url(#mask27_3960_136222)">
<path d="M76.6465 18.1406H82.725V24.9085H76.6465V18.1406Z" fill="#184688"/>
</g>
<mask id="mask28_3960_136222" style="mask-type:luminance" maskUnits="userSpaceOnUse" x="87" y="15" width="8" height="10">
<path d="M89.3161 15.8242V20.6653C89.3161 21.4335 89.3383 21.9315 89.3832 22.159C89.4602 22.5247 89.6444 22.8185 89.9351 23.0401C90.2257 23.2617 90.623 23.3724 91.1269 23.3724C91.6391 23.3724 92.0253 23.2678 92.2854 23.0585C92.5455 22.8492 92.7021 22.592 92.7548 22.2871C92.8077 21.9823 92.8342 21.4763 92.8342 20.769V15.8242H94.6388V20.519C94.6388 21.592 94.5902 22.3501 94.4926 22.7931C94.395 23.2363 94.2151 23.61 93.9529 23.915C93.6909 24.2198 93.34 24.4629 92.9011 24.6437C92.4621 24.8244 91.8892 24.9148 91.1819 24.9148C90.3284 24.9148 89.6808 24.8162 89.2399 24.6194C88.7988 24.4221 88.4505 24.166 88.1942 23.8511C87.9383 23.5362 87.7694 23.2058 87.6882 22.8602C87.5703 22.348 87.5112 21.592 87.5112 20.5923V15.8242H89.3161Z" fill="white"/>
</mask>
<g mask="url(#mask28_3960_136222)">
<path d="M87.5112 15.8242H94.6388V24.9148H87.5112V15.8242Z" fill="#184688"/>
</g>
<mask id="mask29_3960_136222" style="mask-type:luminance" maskUnits="userSpaceOnUse" x="96" y="18" width="7" height="7">
<path d="M100.242 18.1406C100.62 18.1406 100.965 18.2088 101.278 18.3449C101.591 18.4812 101.828 18.6549 101.989 18.8663C102.149 19.0778 102.261 19.3176 102.324 19.5857C102.387 19.8541 102.419 20.2382 102.419 20.7381V24.7622H100.705V21.4575C100.705 20.7584 100.669 20.3061 100.596 20.1008C100.522 19.8958 100.403 19.7362 100.239 19.6223C100.074 19.5085 99.876 19.4515 99.6444 19.4515C99.3475 19.4515 99.0813 19.533 98.8455 19.6955C98.6099 19.8581 98.4482 20.0735 98.3608 20.3417C98.2734 20.61 98.2298 21.1059 98.2298 21.8293V24.7622H96.5166V18.2871H98.1079V19.2382C98.6728 18.5066 99.3841 18.1406 100.242 18.1406Z" fill="white"/>
</mask>
<g mask="url(#mask29_3960_136222)">
<path d="M96.5166 18.1406H102.419V24.7622H96.5166V18.1406Z" fill="#184688"/>
</g>
<mask id="mask30_3960_136222" style="mask-type:luminance" maskUnits="userSpaceOnUse" x="104" y="15" width="2" height="10">
<path d="M105.869 18.2875V24.7626H104.156V18.2875H105.869ZM105.869 15.8242V17.4094H104.156V15.8242H105.869Z" fill="white"/>
</mask>
<g mask="url(#mask30_3960_136222)">
<path d="M104.156 15.8242H105.869V24.7626H104.156V15.8242Z" fill="#184688"/>
</g>
<mask id="mask31_3960_136222" style="mask-type:luminance" maskUnits="userSpaceOnUse" x="107" y="15" width="7" height="10">
<path d="M110.564 18.1411C111.544 18.1411 112.346 18.4592 112.972 19.0954C113.598 19.7316 113.912 20.5354 113.912 21.5068C113.912 22.4865 113.595 23.2983 112.963 23.9426C112.331 24.5868 111.536 24.9089 110.576 24.9089C109.983 24.9089 109.417 24.7747 108.878 24.5066C108.34 24.2382 107.93 23.845 107.65 23.3267C107.37 22.8084 107.229 22.1775 107.229 21.4336C107.229 20.8647 107.37 20.3138 107.65 19.7813C107.93 19.2488 108.328 18.8422 108.842 18.5618C109.356 18.2814 109.93 18.1411 110.564 18.1411ZM110.57 19.5375C110.123 19.5375 109.747 19.7081 109.442 20.0497C109.137 20.391 108.985 20.8829 108.985 21.525C108.985 22.1673 109.137 22.659 109.442 23.0003C109.747 23.3419 110.123 23.5125 110.57 23.5125C111.017 23.5125 111.392 23.3419 111.695 23.0003C111.998 22.659 112.149 22.1631 112.149 21.5129C112.149 20.8789 111.998 20.391 111.695 20.0497C111.392 19.7081 111.017 19.5375 110.57 19.5375ZM112.467 15.6719L110.79 17.4949H109.705L110.546 15.6719H112.467Z" fill="white"/>
</mask>
<g mask="url(#mask31_3960_136222)">
<path d="M107.229 15.6719H113.912V24.9089H107.229V15.6719Z" fill="#184688"/>
</g>
<mask id="mask32_3960_136222" style="mask-type:luminance" maskUnits="userSpaceOnUse" x="115" y="18" width="7" height="7">
<path d="M118.966 18.1406C119.344 18.1406 119.689 18.2088 120.002 18.3449C120.315 18.4812 120.552 18.6549 120.713 18.8663C120.873 19.0778 120.985 19.3176 121.048 19.5857C121.111 19.8541 121.143 20.2382 121.143 20.7381V24.7622H119.429V21.4575C119.429 20.7584 119.393 20.3061 119.319 20.1008C119.246 19.8958 119.127 19.7362 118.963 19.6223C118.798 19.5085 118.6 19.4515 118.368 19.4515C118.072 19.4515 117.805 19.533 117.57 19.6955C117.334 19.8581 117.172 20.0735 117.085 20.3417C116.998 20.61 116.954 21.1059 116.954 21.8293V24.7622H115.241V18.2871H116.832V19.2382C117.397 18.5066 118.108 18.1406 118.966 18.1406Z" fill="white"/>
</mask>
<g mask="url(#mask32_3960_136222)">
<path d="M115.241 18.1406H121.143V24.7622H115.241V18.1406Z" fill="#184688"/>
</g>
<mask id="mask33_3960_136222" style="mask-type:luminance" maskUnits="userSpaceOnUse" x="126" y="15" width="8" height="10">
<path d="M132.989 15.8242V17.3364H128.166V19.318H132.654V20.8238H128.166V23.2564H133.16V24.7626H126.362V15.8242H132.989Z" fill="white"/>
</mask>
<g mask="url(#mask33_3960_136222)">
<path d="M126.362 15.8242H133.16V24.7626H126.362V15.8242Z" fill="#184688"/>
</g>
<mask id="mask34_3960_136222" style="mask-type:luminance" maskUnits="userSpaceOnUse" x="134" y="18" width="7" height="7">
<path d="M136.355 18.2871V21.2623C136.355 22.1728 136.386 22.7309 136.449 22.9362C136.512 23.1413 136.627 23.304 136.794 23.4238C136.96 23.5438 137.172 23.6037 137.428 23.6037C137.721 23.6037 137.983 23.5235 138.214 23.3629C138.446 23.2022 138.604 23.0031 138.69 22.7654C138.772 22.5355 138.815 21.9837 138.818 21.1101L138.818 18.2871H140.531V24.7622H138.94V23.7927C138.704 24.1381 138.394 24.4105 138.01 24.6096C137.626 24.8088 137.22 24.9085 136.794 24.9085C136.359 24.9085 135.968 24.8128 135.623 24.6219C135.278 24.4308 135.028 24.1627 134.873 23.8171C134.719 23.4717 134.642 22.994 134.642 22.3843V18.2871H136.355Z" fill="white"/>
</mask>
<g mask="url(#mask34_3960_136222)">
<path d="M134.642 18.2871H140.531V24.9085H134.642V18.2871Z" fill="#184688"/>
</g>
<mask id="mask35_3960_136222" style="mask-type:luminance" maskUnits="userSpaceOnUse" x="142" y="18" width="5" height="7">
<path d="M145.299 18.1406C145.689 18.1406 146.065 18.2486 146.427 18.4638L145.896 19.9576C145.608 19.7707 145.339 19.6771 145.092 19.6771C144.852 19.6771 144.648 19.7434 144.482 19.8754C144.315 20.0075 144.184 20.2462 144.089 20.5918C143.996 20.9264 143.948 21.616 143.946 22.6601L143.945 24.7622H142.232V18.2871H143.823V19.2077C144.096 18.7728 144.341 18.4862 144.558 18.348C144.776 18.2098 145.022 18.1406 145.299 18.1406Z" fill="white"/>
</mask>
<g mask="url(#mask35_3960_136222)">
<path d="M142.232 18.1406H146.427V24.7622H142.232V18.1406Z" fill="#184688"/>
</g>
<mask id="mask36_3960_136222" style="mask-type:luminance" maskUnits="userSpaceOnUse" x="146" y="18" width="8" height="7">
<path d="M150.104 18.1406C151.083 18.1406 151.886 18.4587 152.512 19.0949C153.138 19.7311 153.451 20.5349 153.451 21.5063C153.451 22.486 153.135 23.2979 152.503 23.9421C151.871 24.5863 151.075 24.9085 150.116 24.9085C149.522 24.9085 148.956 24.7743 148.418 24.5061C147.879 24.2378 147.47 23.8445 147.189 23.3262C146.909 22.8079 146.769 22.177 146.769 21.4331C146.769 20.8642 146.909 20.3133 147.189 19.7808C147.47 19.2483 147.867 18.8418 148.381 18.5614C148.895 18.2809 149.47 18.1406 150.104 18.1406ZM150.11 19.537C149.662 19.537 149.286 19.7076 148.982 20.0492C148.677 20.3906 148.525 20.8824 148.525 21.5245C148.525 22.1669 148.677 22.6585 148.982 22.9999C149.286 23.3415 149.662 23.5121 150.11 23.5121C150.557 23.5121 150.932 23.3415 151.235 22.9999C151.537 22.6585 151.689 22.1626 151.689 21.5125C151.689 20.8784 151.537 20.3906 151.235 20.0492C150.932 19.7076 150.557 19.537 150.11 19.537Z" fill="white"/>
</mask>
<g mask="url(#mask36_3960_136222)">
<path d="M146.769 18.1406H153.451V24.9085H146.769V18.1406Z" fill="#184688"/>
</g>
<mask id="mask37_3960_136222" style="mask-type:luminance" maskUnits="userSpaceOnUse" x="154" y="18" width="8" height="10">
<path d="M158.359 18.1406C159.111 18.1406 159.749 18.4354 160.273 19.0249C160.798 19.6143 161.06 20.4352 161.06 21.4879C161.06 22.5692 160.796 23.4096 160.267 24.0092C159.739 24.6088 159.099 24.9085 158.347 24.9085C157.989 24.9085 157.665 24.8371 157.374 24.6949C157.083 24.5527 156.778 24.3089 156.457 23.9633V27.2253H154.743V18.2871H156.341V19.2382C156.548 18.9131 156.829 18.6488 157.182 18.4456C157.536 18.2424 157.928 18.1406 158.359 18.1406ZM157.896 19.4943C157.477 19.4943 157.129 19.656 156.853 19.9789C156.576 20.3021 156.438 20.7808 156.438 21.4149C156.438 22.1425 156.583 22.6801 156.871 23.0274C157.16 23.3751 157.511 23.5487 157.926 23.5487C158.324 23.5487 158.656 23.3893 158.92 23.0701C159.184 22.7512 159.316 22.2278 159.316 21.5002C159.316 20.8215 159.18 20.3173 158.908 19.988C158.635 19.6589 158.298 19.4943 157.896 19.4943Z" fill="white"/>
</mask>
<g mask="url(#mask37_3960_136222)">
<path d="M154.743 18.1406H161.06V27.2253H154.743V18.1406Z" fill="#184688"/>
</g>
<mask id="mask38_3960_136222" style="mask-type:luminance" maskUnits="userSpaceOnUse" x="161" y="18" width="7" height="7">
<path d="M164.889 18.1406C165.852 18.1406 166.612 18.4587 167.169 19.0949C167.726 19.7311 167.993 20.7057 167.968 22.0185H163.676C163.688 22.5264 163.826 22.9218 164.09 23.2043C164.354 23.4869 164.684 23.628 165.078 23.628C165.346 23.628 165.572 23.5548 165.755 23.4086C165.938 23.2623 166.076 23.0263 166.169 22.7013L167.877 22.9878C167.657 23.6139 167.31 24.0905 166.837 24.4177C166.364 24.7449 165.771 24.9085 165.06 24.9085C163.934 24.9085 163.1 24.5406 162.56 23.8048C162.133 23.2155 161.92 22.4716 161.92 21.5734C161.92 20.5002 162.2 19.66 162.761 19.0522C163.322 18.4445 164.031 18.1406 164.889 18.1406ZM164.993 19.4515C164.619 19.4515 164.31 19.5878 164.066 19.86C163.822 20.1326 163.702 20.5023 163.706 20.9698H166.267C166.255 20.474 166.126 20.097 165.883 19.8388C165.639 19.5806 165.342 19.4515 164.993 19.4515Z" fill="white"/>
</mask>
<g mask="url(#mask38_3960_136222)">
<path d="M161.92 18.1406H167.97V24.9085H161.92V18.1406Z" fill="#184688"/>
</g>
<mask id="mask39_3960_136222" style="mask-type:luminance" maskUnits="userSpaceOnUse" x="168" y="18" width="7" height="7">
<path d="M171.894 18.1406C172.659 18.1406 173.228 18.2312 173.602 18.4122C173.976 18.5929 174.239 18.8227 174.391 19.101C174.544 19.3794 174.62 19.8907 174.62 20.6344L174.602 22.6342C174.602 23.2033 174.629 23.623 174.684 23.8932C174.739 24.1635 174.841 24.4532 174.992 24.7622H173.297C173.252 24.6483 173.197 24.4797 173.132 24.256C173.104 24.1544 173.084 24.0873 173.071 24.0549C172.778 24.3396 172.466 24.5527 172.132 24.6949C171.799 24.8371 171.443 24.9085 171.065 24.9085C170.399 24.9085 169.874 24.7277 169.489 24.3658C169.105 24.0041 168.913 23.5468 168.913 22.994C168.913 22.6282 169 22.3021 169.175 22.0153C169.35 21.729 169.595 21.5093 169.91 21.3569C170.225 21.2045 170.679 21.0714 171.273 20.9576C172.073 20.8073 172.628 20.667 172.937 20.5368V20.3662C172.937 20.0369 172.856 19.8022 172.693 19.6619C172.531 19.5218 172.224 19.4515 171.773 19.4515C171.468 19.4515 171.23 19.5116 171.059 19.6314C170.889 19.7514 170.75 19.9618 170.645 20.2625L169.09 19.9821C169.265 19.3561 169.565 18.8928 169.992 18.5918C170.419 18.2911 171.053 18.1406 171.894 18.1406ZM172.937 21.6526C172.718 21.7258 172.37 21.8132 171.894 21.9146C171.419 22.0164 171.108 22.1161 170.962 22.2136C170.738 22.3722 170.626 22.5732 170.626 22.817C170.626 23.057 170.716 23.2642 170.895 23.439C171.073 23.6139 171.301 23.7013 171.577 23.7013C171.886 23.7013 172.181 23.5995 172.461 23.3963C172.669 23.242 172.805 23.0528 172.87 22.8293C172.915 22.6828 172.937 22.4045 172.937 21.994V21.6526Z" fill="white"/>
</mask>
<g mask="url(#mask39_3960_136222)">
<path d="M168.913 18.1406H174.992V24.9085H168.913V18.1406Z" fill="#184688"/>
</g>
<path d="M73.6425 37.7256V29.9993H74.6913L78.7494 36.0654V29.9993H79.7297V37.7256H78.6809L74.6228 31.6542V37.7256H73.6425ZM85.1634 35.9231L86.1437 36.0443C85.9891 36.6171 85.7028 37.0615 85.2847 37.3777C84.8665 37.694 84.3325 37.8521 83.6825 37.8521C82.8638 37.8521 82.2138 37.6009 81.7325 37.0984C81.2546 36.5925 81.0157 35.8845 81.0157 34.9745C81.0157 34.0328 81.2581 33.302 81.743 32.782C82.2279 32.262 82.8568 32.002 83.6298 32.002C84.3782 32.002 84.9895 32.2567 85.4639 32.7662C85.9382 33.2757 86.1753 33.9924 86.1753 34.9165C86.1753 34.9727 86.1736 35.057 86.1701 35.1695H81.996C82.0311 35.7843 82.205 36.2552 82.5177 36.5819C82.8304 36.9087 83.2204 37.0721 83.6877 37.0721C84.0356 37.0721 84.3325 36.9807 84.5784 36.798C84.8244 36.6153 85.0194 36.3237 85.1634 35.9231ZM82.0487 34.3895H85.174C85.1318 33.9186 85.0124 33.5655 84.8156 33.3301C84.5134 32.9647 84.1217 32.782 83.6403 32.782C83.2046 32.782 82.8375 32.9278 82.5388 33.2194C82.2437 33.5111 82.0803 33.9011 82.0487 34.3895ZM86.7077 37.7256L88.7525 34.8164L86.8605 32.1285H88.0463L88.9054 33.4408C89.067 33.6903 89.197 33.8993 89.2954 34.068C89.45 33.8361 89.5923 33.6305 89.7223 33.4513L90.6657 32.1285H91.7988L89.8646 34.7637L91.9464 37.7256H90.7816L89.6327 35.9864L89.327 35.5173L87.8566 37.7256H86.7077ZM94.8082 36.8771L94.9452 37.715C94.6782 37.7713 94.4392 37.7994 94.2284 37.7994C93.8841 37.7994 93.6171 37.7449 93.4273 37.636C93.2376 37.5271 93.1041 37.3848 93.0268 37.2091C92.9495 37.0299 92.9108 36.6557 92.9108 36.0865V32.8663H92.2152V32.1285H92.9108V30.7424L93.8542 30.1732V32.1285H94.8082V32.8663H93.8542V36.1392C93.8542 36.4098 93.87 36.5837 93.9017 36.661C93.9368 36.7383 93.9913 36.7998 94.065 36.8454C94.1423 36.8911 94.2513 36.914 94.3918 36.914C94.4972 36.914 94.636 36.9017 94.8082 36.8771ZM99.4777 34.6951V33.7886L102.751 33.7834V36.6504C102.248 37.051 101.73 37.3531 101.196 37.5569C100.662 37.7572 100.114 37.8573 99.5515 37.8573C98.7925 37.8573 98.1021 37.6957 97.4802 37.3725C96.8618 37.0457 96.3945 36.5749 96.0783 35.96C95.7621 35.3452 95.604 34.6582 95.604 33.8993C95.604 33.1474 95.7603 32.4465 96.073 31.7965C96.3893 31.1429 96.8425 30.6581 97.4328 30.3418C98.0231 30.0256 98.7029 29.8675 99.4724 29.8675C100.031 29.8675 100.535 29.9589 100.985 30.1416C101.438 30.3208 101.793 30.572 102.05 30.8952C102.306 31.2185 102.501 31.6401 102.635 32.1601L101.712 32.4131C101.596 32.0196 101.452 31.7104 101.28 31.4855C101.108 31.2606 100.862 31.0814 100.542 30.9479C100.223 30.8109 99.8677 30.7424 99.4777 30.7424C99.0104 30.7424 98.6063 30.8144 98.2655 30.9585C97.9247 31.099 97.6489 31.2852 97.4381 31.5171C97.2308 31.749 97.0691 32.0038 96.9532 32.2813C96.7564 32.7592 96.658 33.2774 96.658 33.8361C96.658 34.5247 96.7758 35.101 97.0112 35.5647C97.2501 36.0285 97.5962 36.3729 98.0494 36.5977C98.5027 36.8226 98.984 36.935 99.4935 36.935C99.9362 36.935 100.368 36.8507 100.79 36.6821C101.212 36.5099 101.531 36.3272 101.749 36.1339V34.6951H99.4777ZM107.973 35.9231L108.954 36.0443C108.799 36.6171 108.513 37.0615 108.095 37.3777C107.677 37.694 107.143 37.8521 106.492 37.8521C105.674 37.8521 105.024 37.6009 104.542 37.0984C104.065 36.5925 103.826 35.8845 103.826 34.9745C103.826 34.0328 104.068 33.302 104.553 32.782C105.038 32.262 105.667 32.002 106.44 32.002C107.188 32.002 107.8 32.2567 108.274 32.7662C108.748 33.2757 108.985 33.9924 108.985 34.9165C108.985 34.9727 108.984 35.057 108.98 35.1695H104.806C104.841 35.7843 105.015 36.2552 105.328 36.5819C105.64 36.9087 106.03 37.0721 106.498 37.0721C106.846 37.0721 107.143 36.9807 107.388 36.798C107.634 36.6153 107.829 36.3237 107.973 35.9231ZM104.859 34.3895H107.984C107.942 33.9186 107.822 33.5655 107.626 33.3301C107.323 32.9647 106.932 32.782 106.45 32.782C106.015 32.782 105.647 32.9278 105.349 33.2194C105.054 33.5111 104.89 33.9011 104.859 34.3895ZM110.15 37.7256V32.1285H111.004V32.9243C111.415 32.3094 112.009 32.002 112.785 32.002C113.123 32.002 113.432 32.0635 113.713 32.1865C113.997 32.3059 114.21 32.464 114.351 32.6608C114.491 32.8576 114.589 33.0912 114.646 33.3617C114.681 33.5374 114.698 33.8449 114.698 34.2841V37.7256H113.75V34.3209C113.75 33.9345 113.713 33.6463 113.639 33.4566C113.565 33.2634 113.434 33.1105 113.244 32.9981C113.058 32.8821 112.838 32.8242 112.585 32.8242C112.181 32.8242 111.831 32.9524 111.536 33.2089C111.245 33.4654 111.099 33.952 111.099 34.6688V37.7256H110.15ZM119.99 35.9231L120.97 36.0443C120.816 36.6171 120.529 37.0615 120.111 37.3777C119.693 37.694 119.159 37.8521 118.509 37.8521C117.69 37.8521 117.04 37.6009 116.559 37.0984C116.081 36.5925 115.842 35.8845 115.842 34.9745C115.842 34.0328 116.085 33.302 116.569 32.782C117.054 32.262 117.683 32.002 118.456 32.002C119.205 32.002 119.816 32.2567 120.29 32.7662C120.765 33.2757 121.002 33.9924 121.002 34.9165C121.002 34.9727 121 35.057 120.996 35.1695H116.822C116.857 35.7843 117.031 36.2552 117.344 36.5819C117.657 36.9087 118.047 37.0721 118.514 37.0721C118.862 37.0721 119.159 36.9807 119.405 36.798C119.651 36.6153 119.846 36.3237 119.99 35.9231ZM116.875 34.3895H120C119.958 33.9186 119.839 33.5655 119.642 33.3301C119.34 32.9647 118.948 32.782 118.467 32.782C118.031 32.782 117.664 32.9278 117.365 33.2194C117.07 33.5111 116.907 33.9011 116.875 34.3895ZM122.156 37.7256V32.1285H123.01V32.977C123.228 32.58 123.428 32.3182 123.611 32.1917C123.797 32.0652 124.001 32.002 124.222 32.002C124.542 32.002 124.867 32.1039 125.197 32.3077L124.87 33.1878C124.638 33.0508 124.406 32.9823 124.174 32.9823C123.967 32.9823 123.781 33.0455 123.616 33.172C123.451 33.295 123.333 33.4672 123.263 33.6885C123.157 34.0258 123.105 34.3947 123.105 34.7953V37.7256H122.156ZM129.413 37.0352C129.062 37.3338 128.723 37.5446 128.396 37.6676C128.073 37.7906 127.725 37.8521 127.352 37.8521C126.738 37.8521 126.265 37.7027 125.935 37.4041C125.604 37.1019 125.439 36.7172 125.439 36.2499C125.439 35.9758 125.501 35.7264 125.624 35.5015C125.75 35.2731 125.914 35.0904 126.114 34.9534C126.318 34.8164 126.546 34.7127 126.799 34.6424C126.985 34.5932 127.266 34.5458 127.642 34.5001C128.408 34.4088 128.972 34.2999 129.334 34.1734C129.338 34.0434 129.339 33.9608 129.339 33.9257C129.339 33.5392 129.25 33.2669 129.071 33.1088C128.828 32.8944 128.468 32.7873 127.99 32.7873C127.544 32.7873 127.214 32.8663 126.999 33.0244C126.789 33.179 126.632 33.4549 126.53 33.8519L125.603 33.7254C125.687 33.3284 125.826 33.0086 126.019 32.7662C126.212 32.5202 126.492 32.3323 126.857 32.2023C127.222 32.0688 127.646 32.002 128.127 32.002C128.605 32.002 128.993 32.0582 129.292 32.1707C129.591 32.2831 129.81 32.4254 129.951 32.5975C130.091 32.7662 130.19 32.9805 130.246 33.2405C130.278 33.4022 130.293 33.6938 130.293 34.1154V35.3803C130.293 36.2622 130.313 36.8208 130.351 37.0563C130.393 37.2881 130.474 37.5113 130.594 37.7256H129.603C129.505 37.5288 129.441 37.2987 129.413 37.0352ZM129.334 34.9165C128.99 35.057 128.473 35.1765 127.785 35.2749C127.395 35.3311 127.119 35.3943 126.957 35.4646C126.796 35.5349 126.671 35.6385 126.583 35.7756C126.495 35.9091 126.451 36.0584 126.451 36.2235C126.451 36.4765 126.546 36.6873 126.736 36.856C126.929 37.0246 127.21 37.109 127.579 37.109C127.945 37.109 128.27 37.0299 128.554 36.8718C128.839 36.7102 129.048 36.4906 129.181 36.213C129.283 35.9987 129.334 35.6825 129.334 35.2643V34.9165ZM133.84 36.8771L133.977 37.715C133.71 37.7713 133.471 37.7994 133.261 37.7994C132.916 37.7994 132.649 37.7449 132.459 37.636C132.27 37.5271 132.136 37.3848 132.059 37.2091C131.982 37.0299 131.943 36.6557 131.943 36.0865V32.8663H131.247V32.1285H131.943V30.7424L132.886 30.1732V32.1285H133.84V32.8663H132.886V36.1392C132.886 36.4098 132.902 36.5837 132.934 36.661C132.969 36.7383 133.023 36.7998 133.097 36.8454C133.174 36.8911 133.283 36.914 133.424 36.914C133.529 36.914 133.668 36.9017 133.84 36.8771ZM134.778 31.0902V29.9993H135.727V31.0902H134.778ZM134.778 37.7256V32.1285H135.727V37.7256H134.778ZM136.823 34.927C136.823 33.8905 137.111 33.1228 137.688 32.6239C138.169 32.2093 138.756 32.002 139.448 32.002C140.217 32.002 140.846 32.255 141.335 32.7609C141.823 33.2634 142.067 33.9591 142.067 34.848C142.067 35.5683 141.958 36.1357 141.741 36.5503C141.526 36.9614 141.212 37.2811 140.797 37.5095C140.386 37.7379 139.936 37.8521 139.448 37.8521C138.664 37.8521 138.03 37.6009 137.545 37.0984C137.064 36.596 136.823 35.8722 136.823 34.927ZM137.798 34.927C137.798 35.6438 137.955 36.1814 138.267 36.5398C138.58 36.8946 138.974 37.0721 139.448 37.0721C139.919 37.0721 140.31 36.8929 140.623 36.5345C140.936 36.1761 141.092 35.6297 141.092 34.8954C141.092 34.2032 140.934 33.6797 140.618 33.3249C140.305 32.9665 139.915 32.7873 139.448 32.7873C138.974 32.7873 138.58 32.9647 138.267 33.3196C137.955 33.6745 137.798 34.2103 137.798 34.927ZM143.185 37.7256V32.1285H144.038V32.9243C144.449 32.3094 145.043 32.002 145.82 32.002C146.157 32.002 146.466 32.0635 146.747 32.1865C147.032 32.3059 147.245 32.464 147.385 32.6608C147.526 32.8576 147.624 33.0912 147.68 33.3617C147.715 33.5374 147.733 33.8449 147.733 34.2841V37.7256H146.784V34.3209C146.784 33.9345 146.747 33.6463 146.674 33.4566C146.6 33.2634 146.468 33.1105 146.278 32.9981C146.092 32.8821 145.872 32.8242 145.619 32.8242C145.215 32.8242 144.866 32.9524 144.571 33.2089C144.279 33.4654 144.133 33.952 144.133 34.6688V37.7256H143.185ZM149.335 37.7256V29.9993H154.922V30.911H150.358V33.2774H154.632V34.1839H150.358V36.8138H155.101V37.7256H149.335ZM161.583 29.9993H162.606V34.4632C162.606 35.2397 162.518 35.8564 162.342 36.3131C162.167 36.7699 161.849 37.1423 161.388 37.4304C160.932 37.715 160.331 37.8573 159.586 37.8573C158.862 37.8573 158.27 37.7326 157.81 37.4832C157.349 37.2337 157.021 36.8735 156.824 36.4027C156.627 35.9284 156.529 35.2819 156.529 34.4632V29.9993H157.552V34.458C157.552 35.1291 157.613 35.6245 157.736 35.9442C157.862 36.2604 158.077 36.5046 158.379 36.6768C158.685 36.849 159.057 36.935 159.496 36.935C160.248 36.935 160.784 36.7646 161.104 36.4238C161.423 36.083 161.583 35.4277 161.583 34.458V29.9993Z" fill="#515250"/>
</g>
<defs>
<clipPath id="clip0_3960_136222">
<rect width="180" height="40" fill="white" transform="translate(0 0.320312)"/>
</clipPath>
</defs>
</svg>
