<svg width="105" height="32" viewBox="0 0 105 32" fill="none" xmlns="http://www.w3.org/2000/svg" role="img" aria-label="DINTEL">
<path fill-rule="evenodd" clip-rule="evenodd" d="M1.19191 18.3206V7.47634H5.97346V14.4486H8.46817C10.2872 14.4486 11.6299 14.0155 12.4961 13.1492C13.3796 12.2657 13.8214 10.9317 13.8214 9.1473C13.8214 7.36288 13.3796 6.03756 12.4961 5.17134C11.6126 4.30512 10.2699 3.87201 8.46817 3.87201H6.1706V3.86356H1.19191V0H8.78001C11.9504 0 14.4105 0.796924 16.1602 2.39077C17.91 3.98462 18.7849 6.23679 18.7849 9.1473C18.7849 12.0578 17.91 14.3186 16.1602 15.9298C14.4105 17.5237 11.9504 18.3206 8.78001 18.3206H1.19191ZM22.5191 18.3206V0H27.3007V18.3206H22.5191ZM31.7551 0V18.3206H36.1988V7.82198L44.6185 18.3206H48.1007V0H43.683V10.4986L35.2633 0H31.7551ZM90.7759 0V18.3206H103.717V14.3446H95.5574V0H90.7759ZM73.4096 18.3206V7.17286H80.4124V7.17228H85.7533V10.8624H77.9832V14.6305H86.351V18.3206H73.4096ZM73.3972 0H86.351V3.72882H73.3972V0ZM68.9723 0H52.5257V3.72882H68.9723V0ZM58.4591 18.3206V7.17233H63.0388V18.3206H58.4591ZM91.6561 31.9226V25.863H92.2062L95.8592 30.7365V25.863H96.5124V31.9226H95.9795L92.3179 27.0319V31.9226H91.6561ZM92.6876 25.1926L92.2922 25.1668C92.3323 24.8 92.4412 24.5193 92.6188 24.3244C92.8022 24.1239 93.0371 24.0236 93.3236 24.0236C93.4611 24.0236 93.5958 24.0523 93.7276 24.1096C93.8651 24.1669 94.0255 24.2557 94.2089 24.376C94.3923 24.4963 94.5298 24.5766 94.6215 24.6167C94.7132 24.6568 94.7991 24.6768 94.8793 24.6768C95.206 24.6768 95.4094 24.4505 95.4896 23.9978L95.885 24.0236C95.8506 24.3903 95.7417 24.674 95.5583 24.8745C95.375 25.0694 95.1429 25.1668 94.8622 25.1668C94.7246 25.1668 94.5842 25.1381 94.441 25.0808C94.3034 25.0235 94.1401 24.9318 93.951 24.8058C93.7906 24.6969 93.6617 24.6224 93.5643 24.5823C93.4669 24.5365 93.378 24.5135 93.2978 24.5135C92.9712 24.5135 92.7678 24.7399 92.6876 25.1926ZM3.14766 32C2.67206 32 2.2423 31.9398 1.85837 31.8195C1.47445 31.6934 1.14211 31.5129 0.861328 31.278L1.11059 30.7107C1.40283 30.9342 1.70939 31.1003 2.03028 31.2092C2.35117 31.3181 2.72363 31.3725 3.14766 31.3725C3.66337 31.3725 4.04443 31.278 4.29083 31.0889C4.54295 30.8941 4.66902 30.6391 4.66902 30.3239C4.66902 30.0718 4.57733 29.8712 4.39397 29.7222C4.21633 29.5733 3.9155 29.4558 3.49147 29.3698L2.59756 29.1893C2.05893 29.0747 1.65495 28.8885 1.38564 28.6306C1.12205 28.3671 0.990256 28.0175 0.990256 27.582C0.990256 27.221 1.08194 26.9059 1.2653 26.6366C1.4544 26.3672 1.71512 26.1581 2.04747 26.0091C2.37982 25.8601 2.76374 25.7856 3.19923 25.7856C3.60607 25.7856 3.98426 25.8515 4.3338 25.9833C4.68334 26.1094 4.97844 26.2927 5.21911 26.5334L4.96985 27.0835C4.71199 26.8486 4.43981 26.6795 4.1533 26.5764C3.86679 26.4675 3.5459 26.4131 3.19064 26.4131C2.73795 26.4131 2.37695 26.5191 2.10764 26.7311C1.83832 26.9374 1.70366 27.2124 1.70366 27.5562C1.70366 27.8313 1.78675 28.049 1.95292 28.2095C2.12483 28.3699 2.40274 28.4874 2.78666 28.5619L3.68056 28.751C4.25931 28.8713 4.68621 29.0547 4.96125 29.3011C5.24203 29.5417 5.38242 29.8712 5.38242 30.2895C5.38242 30.6276 5.29074 30.9256 5.10737 31.1834C4.92974 31.4413 4.67188 31.6418 4.3338 31.7851C4.00145 31.9284 3.60607 32 3.14766 32ZM7.76531 31.9226V25.863H8.47012V31.9226H7.76531ZM11.9242 31.8195C12.3081 31.9398 12.7379 32 13.2135 32C13.6719 32 14.0673 31.9284 14.3996 31.7851C14.7377 31.6418 14.9956 31.4413 15.1732 31.1834C15.3566 30.9256 15.4482 30.6276 15.4482 30.2895C15.4482 29.8712 15.3079 29.5417 15.0271 29.3011C14.752 29.0547 14.3251 28.8713 13.7464 28.751L12.8525 28.5619C12.4686 28.4874 12.1907 28.3699 12.0187 28.2095C11.8526 28.049 11.7695 27.8313 11.7695 27.5562C11.7695 27.2124 11.9041 26.9374 12.1735 26.7311C12.4428 26.5191 12.8038 26.4131 13.2565 26.4131C13.6117 26.4131 13.9326 26.4675 14.2191 26.5764C14.5056 26.6795 14.7778 26.8486 15.0357 27.0835L15.2849 26.5334C15.0443 26.2927 14.7492 26.1094 14.3996 25.9833C14.0501 25.8515 13.6719 25.7856 13.2651 25.7856C12.8296 25.7856 12.4456 25.8601 12.1133 26.0091C11.7809 26.1581 11.5202 26.3672 11.3311 26.6366C11.1478 26.9059 11.0561 27.221 11.0561 27.582C11.0561 28.0175 11.1879 28.3671 11.4515 28.6306C11.7208 28.8885 12.1248 29.0747 12.6634 29.1893L13.5573 29.3698C13.9813 29.4558 14.2822 29.5733 14.4598 29.7222C14.6432 29.8712 14.7348 30.0718 14.7348 30.3239C14.7348 30.6391 14.6088 30.8941 14.3566 31.0889C14.1102 31.278 13.7292 31.3725 13.2135 31.3725C12.7895 31.3725 12.417 31.3181 12.0961 31.2092C11.7752 31.1003 11.4686 30.9342 11.1764 30.7107L10.9272 31.278C11.2079 31.5129 11.5403 31.6934 11.9242 31.8195ZM19.1922 31.9226V26.4732H16.9918V25.863H22.106V26.4732H19.9056V31.9226H19.1922ZM24.1651 25.863V31.9226H27.99V31.3296H24.8527V29.1464H27.8095V28.5533H24.8527V26.4561H27.99V25.863H24.1651ZM30.4826 31.9226V25.863H31.0757L33.405 30.238L35.7171 25.863H36.3102V31.9226H35.657V27.1867L33.6371 30.9857H33.173L31.1273 27.1952V31.9226H30.4826ZM41.1963 25.863L38.5232 31.9226H39.2538L39.9156 30.3755H43.0701L43.7405 31.9226H44.4711L41.798 25.863H41.1963ZM40.1735 29.7824L41.4886 26.6881H41.5058L42.8208 29.7824H40.1735ZM50.1556 31.9226V25.863H52.2012C53.1811 25.863 53.9375 26.1237 54.4704 26.6452C55.0033 27.1609 55.2698 27.9086 55.2698 28.8885C55.2698 29.8684 55.0033 30.619 54.4704 31.1405C53.9375 31.6619 53.1811 31.9226 52.2012 31.9226H50.1556ZM50.8604 31.321H52.1497C53.7312 31.321 54.522 30.5101 54.522 28.8885C54.522 27.2726 53.7312 26.4647 52.1497 26.4647H50.8604V31.321ZM57.8242 25.863V31.9226H61.649V31.3296H58.5118V29.1464H61.4685V28.5533H58.5118V26.4561H61.649V25.863H57.8242ZM67.6214 31.9226V25.863H69.667C70.6469 25.863 71.4033 26.1237 71.9362 26.6452C72.4691 27.1609 72.7355 27.9086 72.7355 28.8885C72.7355 29.8684 72.4691 30.619 71.9362 31.1405C71.4033 31.6619 70.6469 31.9226 69.667 31.9226H67.6214ZM68.3262 31.321H69.6155C71.197 31.321 71.9877 30.5101 71.9877 28.8885C71.9877 27.2726 71.197 26.4647 69.6155 26.4647H68.3262V31.321ZM75.2899 25.863V31.9226H75.9947V25.863H75.2899ZM80.7381 32C80.2625 32 79.8327 31.9398 79.4488 31.8195C79.0649 31.6934 78.7325 31.5129 78.4518 31.278L78.701 30.7107C78.9933 30.9342 79.2998 31.1003 79.6207 31.2092C79.9416 31.3181 80.3141 31.3725 80.7381 31.3725C81.2538 31.3725 81.6349 31.278 81.8813 31.0889C82.1334 30.8941 82.2595 30.6391 82.2595 30.3239C82.2595 30.0718 82.1678 29.8712 81.9844 29.7222C81.8068 29.5733 81.5059 29.4558 81.0819 29.3698L80.188 29.1893C79.6494 29.0747 79.2454 28.8885 78.9761 28.6306C78.7125 28.3671 78.5807 28.0175 78.5807 27.582C78.5807 27.221 78.6724 26.9059 78.8557 26.6366C79.0448 26.3672 79.3056 26.1581 79.6379 26.0091C79.9703 25.8601 80.3542 25.7856 80.7897 25.7856C81.1965 25.7856 81.5747 25.8515 81.9242 25.9833C82.2738 26.1094 82.5689 26.2927 82.8095 26.5334L82.5603 27.0835C82.3024 26.8486 82.0302 26.6795 81.7437 26.5764C81.4572 26.4675 81.1363 26.4131 80.7811 26.4131C80.3284 26.4131 79.9674 26.5191 79.6981 26.7311C79.4288 26.9374 79.2941 27.2124 79.2941 27.5562C79.2941 27.8313 79.3772 28.049 79.5434 28.2095C79.7153 28.3699 79.9932 28.4874 80.3771 28.5619L81.271 28.751C81.8497 28.8713 82.2766 29.0547 82.5517 29.3011C82.8325 29.5417 82.9728 29.8712 82.9728 30.2895C82.9728 30.6276 82.8812 30.9256 82.6978 31.1834C82.5202 31.4413 82.2623 31.6418 81.9242 31.7851C81.5919 31.9284 81.1965 32 80.7381 32ZM85.3557 25.863V31.9226H89.1806V31.3296H86.0434V29.1464H89.0001V28.5533H86.0434V26.4561H89.1806V25.863H85.3557ZM100.382 31.6218C100.801 31.8739 101.291 32 101.852 32C102.419 32 102.909 31.8739 103.322 31.6218C103.74 31.3639 104.064 31.0029 104.293 30.5388C104.522 30.0689 104.637 29.516 104.637 28.8799C104.637 28.2439 104.522 27.6966 104.293 27.2382C104.07 26.7741 103.749 26.4159 103.33 26.1638C102.918 25.9117 102.425 25.7856 101.852 25.7856C101.285 25.7856 100.792 25.9117 100.374 26.1638C99.9611 26.4159 99.6431 26.7741 99.4196 27.2382C99.1962 27.7024 99.0844 28.2525 99.0844 28.8885C99.0844 29.5246 99.1962 30.0746 99.4196 30.5388C99.6488 31.0029 99.9697 31.3639 100.382 31.6218ZM103.356 30.7193C103.001 31.1548 102.5 31.3725 101.852 31.3725C101.216 31.3725 100.72 31.1548 100.365 30.7193C100.01 30.2781 99.8322 29.6678 99.8322 28.8885C99.8322 28.1035 100.01 27.4961 100.365 27.0663C100.72 26.6308 101.216 26.4131 101.852 26.4131C102.5 26.4131 103.001 26.6308 103.356 27.0663C103.712 27.4961 103.889 28.1035 103.889 28.8885C103.889 29.6735 103.712 30.2838 103.356 30.7193Z" fill="#363D47"/>
</svg>
