<svg width="180" height="41" viewBox="0 0 180 41" fill="none" xmlns="http://www.w3.org/2000/svg">
<g clip-path="url(#clip0_3960_136470)">
<mask id="mask0_3960_136470" style="mask-type:luminance" maskUnits="userSpaceOnUse" x="7" y="2" width="22" height="37">
<path d="M28.6876 2.4873V9.62356H22.1717V38.3266H14.4528V9.62356H7.90369V2.4873H28.6876Z" fill="white"/>
</mask>
<g mask="url(#mask0_3960_136470)">
<path d="M7.90369 2.4873H28.6876V38.3266H7.90369V2.4873Z" fill="#BC2439"/>
</g>
<mask id="mask1_3960_136470" style="mask-type:luminance" maskUnits="userSpaceOnUse" x="27" y="26" width="18" height="13">
<path d="M36.3191 26.9033L44.5152 38.299H34.9905L27.8969 28.342L29.8558 28.2926C31.6813 28.1566 33.4872 27.806 35.2405 27.2472L36.3191 26.9033Z" fill="white"/>
</mask>
<g mask="url(#mask1_3960_136470)">
<path d="M27.8969 26.9033H44.5152V38.299H27.8969V26.9033Z" fill="#BC2439"/>
</g>
<mask id="mask2_3960_136470" style="mask-type:luminance" maskUnits="userSpaceOnUse" x="6" y="31" width="7" height="6">
<path d="M10.3089 31.2998L10.6743 33.3655L12.9721 33.4989L10.9557 34.7921L11.6236 36.8758L9.45961 35.4811L7.26998 36.6235L8.42001 34.5748L6.7439 33.138L9.16245 33.278L10.3089 31.2998Z" fill="white"/>
</mask>
<g mask="url(#mask2_3960_136470)">
<path d="M6.7439 31.2998H12.9721V36.8758H6.7439V31.2998Z" fill="#F8C72F"/>
</g>
<mask id="mask3_3960_136470" style="mask-type:luminance" maskUnits="userSpaceOnUse" x="0" y="24" width="7" height="6">
<path d="M3.98066 24.4121L4.3254 26.2736L6.467 26.3975L4.59024 27.5587L4.89682 29.4184L3.19737 28.1768L0.845252 29.1837L2.2269 27.3585L0.662109 26.0613L2.91637 26.1919L3.98066 24.4121Z" fill="white"/>
</mask>
<g mask="url(#mask3_3960_136470)">
<path d="M0.662109 24.4121H6.467V29.4184H0.662109V24.4121Z" fill="#F8C72F"/>
</g>
<mask id="mask4_3960_136470" style="mask-type:luminance" maskUnits="userSpaceOnUse" x="0" y="16" width="6" height="6">
<path d="M3.48626 16.9795L3.80227 18.5676L5.73199 18.6794L4.04421 19.6638L4.32566 21.2497L2.79095 20.1867L0.674936 21.0382L1.91474 19.4865L0.501221 18.3759L2.53239 18.494L3.48626 16.9795Z" fill="white"/>
</mask>
<g mask="url(#mask4_3960_136470)">
<path d="M0.501221 16.9795H5.73199V21.2497H0.501221V16.9795Z" fill="#F8C72F"/>
</g>
<mask id="mask5_3960_136470" style="mask-type:luminance" maskUnits="userSpaceOnUse" x="4" y="11" width="6" height="4">
<path d="M7.37766 11.3535L7.65956 12.6068L9.33836 12.7042L7.87547 13.4727L8.12774 14.7241L6.78829 13.8789L4.95193 14.5401L6.0225 13.3227L4.78809 12.4407L6.55532 12.543L7.37766 11.3535Z" fill="white"/>
</mask>
<g mask="url(#mask5_3960_136470)">
<path d="M4.78809 11.3535H9.33836V14.7241H4.78809V11.3535Z" fill="#F8C72F"/>
</g>
<mask id="mask6_3960_136470" style="mask-type:luminance" maskUnits="userSpaceOnUse" x="22" y="2" width="22" height="26">
<path d="M29.5923 2.53711C30.2104 2.54256 32.586 2.61918 35.0595 3.43453C36.8375 4.02122 38.339 4.87857 39.5761 5.97204C40.8123 7.06595 41.7622 8.37308 42.4261 9.89343C43.089 11.4147 43.4208 13.0971 43.4208 14.9429V15.0447C43.4208 17.1302 43.0258 18.9585 42.238 20.53C41.448 22.1024 40.3639 23.4186 38.9845 24.477C37.6038 25.5368 35.9914 26.3313 34.1447 26.8605C32.298 27.3911 30.318 27.6555 28.2034 27.6555H22.8828C22.8828 25.3056 22.8945 22.9971 22.8828 20.6422L28.4727 20.6328C30.551 20.6328 32.1638 20.1121 33.3111 19.0689C34.4589 18.0271 35.0321 16.7366 35.0321 15.1987V15.0964C35.0321 13.3202 34.4315 11.9695 33.2312 11.047C32.0291 10.1242 30.6892 9.78705 29.4373 9.66226C29.4494 7.26525 29.4373 4.91807 29.4373 2.53723L29.5923 2.53711Z" fill="white"/>
</mask>
<g mask="url(#mask6_3960_136470)">
<path d="M22.8828 2.53711H43.4208V27.6559H22.8828V2.53711Z" fill="#F8C72F"/>
</g>
<mask id="mask7_3960_136470" style="mask-type:luminance" maskUnits="userSpaceOnUse" x="50" y="4" width="7" height="9">
<path d="M53.7927 4.72168C54.2797 4.72168 54.7151 4.78946 55.098 4.92502C55.4805 5.06013 55.8054 5.2518 56.0725 5.49914C56.3396 5.74692 56.5443 6.04273 56.6875 6.38701C56.8307 6.7313 56.9021 7.11195 56.9021 7.52986V7.55275C56.9021 8.02497 56.8168 8.43883 56.6471 8.79434C56.4765 9.1503 56.2426 9.44836 55.945 9.68806C55.647 9.92776 55.2987 10.1078 54.9005 10.2276C54.5019 10.3475 54.075 10.4072 53.6185 10.4072H52.2611V12.8437H50.4741V4.72168H53.7927ZM53.6419 6.3345H52.2611V8.81769H53.6764C54.1248 8.81769 54.4732 8.69963 54.7205 8.46397C54.9683 8.22786 55.0922 7.93564 55.0922 7.58776V7.56487C55.0922 7.16223 54.9625 6.85699 54.7034 6.64781C54.444 6.43908 54.0903 6.3345 53.6419 6.3345Z" fill="white"/>
</mask>
<g mask="url(#mask7_3960_136470)">
<path d="M50.4741 4.72168H56.9021V12.8437H50.4741V4.72168Z" fill="#4C4D4C"/>
</g>
<mask id="mask8_3960_136470" style="mask-type:luminance" maskUnits="userSpaceOnUse" x="58" y="4" width="2" height="9">
<path d="M59.885 4.37402V12.8439H58.1213V4.37402H59.885Z" fill="white"/>
</mask>
<g mask="url(#mask8_3960_136470)">
<path d="M58.1213 4.37402H59.885V12.8439H58.1213V4.37402Z" fill="#4C4D4C"/>
</g>
<mask id="mask9_3960_136470" style="mask-type:luminance" maskUnits="userSpaceOnUse" x="61" y="6" width="6" height="7">
<path d="M64.1202 6.55469C64.6077 6.55469 65.0233 6.61484 65.3676 6.73469C65.7119 6.85454 65.996 7.02691 66.2205 7.2509C66.4526 7.48297 66.6227 7.76755 66.7309 8.10376C66.839 8.44042 66.8934 8.81748 66.8934 9.23538V12.8435H65.1876V12.171C64.9713 12.4103 64.7118 12.602 64.4102 12.7452C64.1085 12.8879 63.7413 12.9597 63.3082 12.9597C63.0141 12.9597 62.7376 12.9193 62.4782 12.8381C62.2192 12.7564 61.993 12.6347 61.7995 12.4722C61.606 12.3097 61.4534 12.1109 61.3412 11.8748C61.229 11.6387 61.1729 11.3662 61.1729 11.0569V11.0336C61.1729 10.6933 61.2348 10.3993 61.3587 10.152C61.4826 9.90421 61.6545 9.69907 61.8749 9.53658C62.0953 9.37453 62.3583 9.25289 62.664 9.17119C62.9697 9.0904 63.3082 9.04955 63.6794 9.04955C63.9963 9.04955 64.2728 9.07289 64.5089 9.11912C64.7446 9.16581 64.9748 9.22775 65.1993 9.30496V9.20037C65.1993 8.82915 65.0871 8.5468 64.8631 8.35334C64.6386 8.15987 64.306 8.06336 63.8652 8.06336C63.5245 8.06336 63.2247 8.09254 62.9657 8.15045C62.7067 8.20835 62.4337 8.29184 62.1478 8.40002L61.707 7.05384C62.0473 6.90706 62.4028 6.78721 62.7744 6.69429C63.1457 6.60137 63.5941 6.55469 64.1202 6.55469ZM64.0968 10.1053C63.718 10.1053 63.4199 10.1789 63.2036 10.3257C62.9868 10.4729 62.8786 10.6857 62.8786 10.964V10.9874C62.8786 11.2271 62.9675 11.4129 63.1457 11.544C63.3234 11.6759 63.5555 11.7415 63.8419 11.7415C64.2593 11.7415 64.5937 11.6409 64.8456 11.4398C65.0969 11.2387 65.2226 10.9757 65.2226 10.6507V10.3374C65.0678 10.2678 64.8958 10.2117 64.706 10.169C64.5165 10.1269 64.3136 10.1053 64.0968 10.1053Z" fill="white"/>
</mask>
<g mask="url(#mask9_3960_136470)">
<path d="M61.1729 6.55469H66.8934V12.9597H61.1729V6.55469Z" fill="#4C4D4C"/>
</g>
<mask id="mask10_3960_136470" style="mask-type:luminance" maskUnits="userSpaceOnUse" x="68" y="6" width="7" height="7">
<path d="M71.9984 6.50879C72.6717 6.50879 73.1915 6.71393 73.5591 7.12375C73.9263 7.53402 74.1104 8.09826 74.1104 8.81781V12.8438H72.3467V9.3834C72.3467 8.96684 72.2538 8.65218 72.068 8.43986C71.8826 8.22799 71.6195 8.12161 71.2793 8.12161C70.9386 8.12161 70.6702 8.22799 70.4727 8.43986C70.2756 8.65218 70.1768 8.96684 70.1768 9.3834V12.8438H68.4132V6.62505H70.1768V7.51383C70.2774 7.38186 70.3878 7.25482 70.5077 7.13408C70.6275 7.01333 70.7608 6.90649 70.9076 6.81268C71.0549 6.71931 71.2173 6.64525 71.3951 6.59093C71.5729 6.53617 71.774 6.50879 71.9984 6.50879Z" fill="white"/>
</mask>
<g mask="url(#mask10_3960_136470)">
<path d="M68.4132 6.50879H74.1104V12.8438H68.4132V6.50879Z" fill="#4C4D4C"/>
</g>
<mask id="mask11_3960_136470" style="mask-type:luminance" maskUnits="userSpaceOnUse" x="78" y="4" width="8" height="9">
<path d="M85.3768 4.37402V12.8439H83.6127V11.9506C83.3963 12.2446 83.1351 12.4866 82.8298 12.676C82.5241 12.865 82.1395 12.9601 81.6753 12.9601C81.3117 12.9601 80.9598 12.8906 80.6191 12.7514C80.2789 12.6123 79.9772 12.4053 79.7142 12.1306C79.4511 11.8559 79.2401 11.5197 79.0821 11.1211C78.9232 10.7229 78.8442 10.2646 78.8442 9.74619V9.72285C78.8442 9.20484 78.9232 8.74654 79.0821 8.34793C79.2401 7.94978 79.4493 7.61312 79.7083 7.33841C79.9678 7.06415 80.2672 6.85721 80.6079 6.71761C80.9481 6.57846 81.3041 6.50888 81.6753 6.50888C82.1471 6.50888 82.5358 6.6018 82.8415 6.78764C83.1467 6.97302 83.4039 7.18983 83.6127 7.43716V4.37402H85.3768ZM82.1278 8.00589C81.9191 8.00589 81.7233 8.04629 81.542 8.12754C81.3597 8.20878 81.1995 8.32504 81.0603 8.47586C80.9212 8.62624 80.8108 8.80624 80.7295 9.01541C80.6483 9.22414 80.6079 9.46025 80.6079 9.72285V9.74619C80.6079 10.0016 80.6483 10.2355 80.7295 10.4482C80.8108 10.661 80.9212 10.8428 81.0603 10.9936C81.1995 11.1444 81.3597 11.2603 81.542 11.3415C81.7233 11.4227 81.9191 11.4631 82.1278 11.4631C82.3365 11.4631 82.5318 11.4227 82.7136 11.3415C82.8954 11.2603 83.0543 11.1444 83.1894 10.9936C83.3249 10.8428 83.4331 10.661 83.5144 10.4482C83.5956 10.2355 83.6365 10.0016 83.6365 9.74619V9.72285C83.6365 9.46788 83.5956 9.23402 83.5144 9.0208C83.4331 8.80848 83.3249 8.62624 83.1894 8.47586C83.0543 8.32504 82.8954 8.20878 82.7136 8.12754C82.5318 8.04629 82.3365 8.00589 82.1278 8.00589Z" fill="white"/>
</mask>
<g mask="url(#mask11_3960_136470)">
<path d="M78.8442 4.37402H85.3768V12.9601H78.8442V4.37402Z" fill="#4C4D4C"/>
</g>
<mask id="mask12_3960_136470" style="mask-type:luminance" maskUnits="userSpaceOnUse" x="86" y="6" width="7" height="7">
<path d="M89.7274 6.50879C90.2454 6.50879 90.6938 6.60171 91.0731 6.78754C91.452 6.97293 91.7675 7.2225 92.0189 7.53582C92.2698 7.84869 92.4556 8.20869 92.5759 8.61492C92.6958 9.02071 92.7555 9.44445 92.7555 9.88524C92.7555 9.95482 92.7537 10.0284 92.7497 10.1056C92.7456 10.1833 92.7398 10.2645 92.7326 10.3494H88.4045C88.4894 10.7516 88.6653 11.055 88.9324 11.2602C89.1995 11.4653 89.5299 11.5676 89.9244 11.5676C90.2184 11.5676 90.4815 11.5174 90.7135 11.4168C90.9456 11.3163 91.1853 11.1538 91.4326 10.9293L92.4422 11.823C92.1482 12.1866 91.7926 12.4708 91.3747 12.6759C90.9573 12.8806 90.4658 12.9834 89.9011 12.9834C89.4369 12.9834 89.0056 12.9057 88.6074 12.7513C88.2088 12.5965 87.865 12.3761 87.575 12.0897C87.2846 11.8037 87.0583 11.4653 86.8963 11.0748C86.7338 10.6842 86.6521 10.2488 86.6521 9.76943V9.74609C86.6521 9.30529 86.728 8.88739 86.8788 8.49283C87.0296 8.09826 87.2401 7.75442 87.5113 7.46041C87.7819 7.16639 88.1047 6.93432 88.4799 6.7642C88.8552 6.59408 89.2709 6.50879 89.7274 6.50879ZM89.7274 7.92455C89.3557 7.92455 89.0558 8.0444 88.8278 8.2841C88.5998 8.5238 88.4508 8.8452 88.3812 9.24694H91.0381C90.9842 8.85283 90.8451 8.53367 90.6206 8.28993C90.3962 8.04619 90.0986 7.92455 89.7274 7.92455Z" fill="white"/>
</mask>
<g mask="url(#mask12_3960_136470)">
<path d="M86.6521 6.50879H92.7555V12.9834H86.6521V6.50879Z" fill="#4C4D4C"/>
</g>
<mask id="mask13_3960_136470" style="mask-type:luminance" maskUnits="userSpaceOnUse" x="97" y="4" width="8" height="9">
<path d="M101.447 4.72168C102.475 4.72168 103.264 4.99639 103.814 5.54537C104.278 6.00996 104.51 6.62896 104.51 7.40238V7.42527C104.51 8.08287 104.349 8.61883 104.028 9.03225C103.707 9.44611 103.287 9.75 102.769 9.94302L104.754 12.8437H102.665L100.925 10.2447H99.5205V12.8437H97.7335V4.72168H101.447ZM101.296 6.3345H99.5205V8.66686H101.33C101.771 8.66686 102.11 8.56272 102.346 8.35355C102.581 8.14482 102.699 7.86607 102.699 7.51819V7.49484C102.699 7.10836 102.576 6.81794 102.328 6.62492C102.081 6.43145 101.737 6.3345 101.296 6.3345Z" fill="white"/>
</mask>
<g mask="url(#mask13_3960_136470)">
<path d="M97.7335 4.72168H104.754V12.8437H97.7335V4.72168Z" fill="#4C4D4C"/>
</g>
<mask id="mask14_3960_136470" style="mask-type:luminance" maskUnits="userSpaceOnUse" x="105" y="6" width="7" height="7">
<path d="M108.71 6.50879C109.228 6.50879 109.677 6.60171 110.056 6.78754C110.435 6.97293 110.75 7.2225 111.001 7.53582C111.253 7.84869 111.438 8.20869 111.559 8.61492C111.678 9.02071 111.738 9.44445 111.738 9.88524C111.738 9.95482 111.736 10.0284 111.732 10.1056C111.729 10.1833 111.723 10.2645 111.715 10.3494H107.387C107.472 10.7516 107.648 11.055 107.915 11.2602C108.182 11.4653 108.512 11.5676 108.907 11.5676C109.201 11.5676 109.464 11.5174 109.696 11.4168C109.928 11.3163 110.168 11.1538 110.415 10.9293L111.425 11.823C111.131 12.1866 110.775 12.4708 110.357 12.6759C109.94 12.8806 109.448 12.9834 108.884 12.9834C108.42 12.9834 107.989 12.9057 107.59 12.7513C107.192 12.5965 106.848 12.3761 106.558 12.0897C106.268 11.8037 106.041 11.4653 105.879 11.0748C105.716 10.6842 105.635 10.2488 105.635 9.76943V9.74609C105.635 9.30529 105.711 8.88739 105.861 8.49283C106.012 8.09826 106.223 7.75442 106.494 7.46041C106.765 7.16639 107.087 6.93432 107.463 6.7642C107.838 6.59408 108.253 6.50879 108.71 6.50879ZM108.71 7.92455C108.339 7.92455 108.039 8.0444 107.811 8.2841C107.582 8.5238 107.433 8.8452 107.364 9.24694H110.021C109.967 8.85283 109.828 8.53367 109.603 8.28993C109.379 8.04619 109.081 7.92455 108.71 7.92455Z" fill="white"/>
</mask>
<g mask="url(#mask14_3960_136470)">
<path d="M105.635 6.50879H111.738V12.9834H105.635V6.50879Z" fill="#4C4D4C"/>
</g>
<mask id="mask15_3960_136470" style="mask-type:luminance" maskUnits="userSpaceOnUse" x="112" y="6" width="7" height="7">
<path d="M116.008 6.50879C116.596 6.50879 117.083 6.60171 117.47 6.78754C117.857 6.97293 118.197 7.22834 118.491 7.55288L117.412 8.71323C117.211 8.5045 117.004 8.33841 116.791 8.21452C116.578 8.09063 116.313 8.02869 115.996 8.02869C115.772 8.02869 115.569 8.07358 115.387 8.16245C115.205 8.25133 115.047 8.37298 114.912 8.52784C114.776 8.6827 114.671 8.86225 114.598 9.06739C114.525 9.27253 114.488 9.49068 114.488 9.72275V9.74609C114.488 9.98579 114.525 10.2102 114.598 10.419C114.671 10.6281 114.778 10.8099 114.917 10.9643C115.057 11.1192 115.223 11.2409 115.416 11.3297C115.61 11.4186 115.826 11.463 116.066 11.463C116.36 11.463 116.617 11.4033 116.837 11.2835C117.058 11.1632 117.277 11.0029 117.493 10.8019L118.526 11.8464C118.224 12.179 117.88 12.4515 117.493 12.6642C117.106 12.877 116.603 12.9834 115.985 12.9834C115.52 12.9834 115.089 12.8981 114.691 12.728C114.293 12.5579 113.95 12.3276 113.664 12.0376C113.378 11.7476 113.154 11.4074 112.991 11.0164C112.829 10.6259 112.748 10.2102 112.748 9.76943V9.74609C112.748 9.30529 112.829 8.88739 112.991 8.49283C113.154 8.09826 113.378 7.75442 113.664 7.46041C113.95 7.16639 114.293 6.93432 114.691 6.7642C115.089 6.59408 115.528 6.50879 116.008 6.50879Z" fill="white"/>
</mask>
<g mask="url(#mask15_3960_136470)">
<path d="M112.748 6.50879H118.526V12.9834H112.748V6.50879Z" fill="#4C4D4C"/>
</g>
<mask id="mask16_3960_136470" style="mask-type:luminance" maskUnits="userSpaceOnUse" x="119" y="6" width="7" height="7">
<path d="M121.392 6.625V10.0858C121.392 10.5024 121.485 10.8171 121.671 11.0289C121.856 11.2408 122.119 11.3472 122.46 11.3472C122.8 11.3472 123.068 11.2408 123.266 11.0289C123.463 10.8171 123.562 10.5024 123.562 10.0858V6.625H125.325V12.8437H123.562V11.9545C123.461 12.0874 123.351 12.214 123.231 12.3347C123.111 12.4555 122.978 12.5627 122.831 12.6561C122.684 12.7499 122.521 12.8235 122.343 12.8783C122.166 12.9326 121.964 12.96 121.74 12.96C121.067 12.96 120.547 12.7553 120.179 12.345C119.812 11.9352 119.629 11.3705 119.629 10.651V6.625H121.392Z" fill="white"/>
</mask>
<g mask="url(#mask16_3960_136470)">
<path d="M119.629 6.625H125.325V12.96H119.629V6.625Z" fill="#4C4D4C"/>
</g>
<mask id="mask17_3960_136470" style="mask-type:luminance" maskUnits="userSpaceOnUse" x="126" y="6" width="8" height="9">
<path d="M130.604 6.50879C130.968 6.50879 131.319 6.57837 131.66 6.71752C132 6.85712 132.302 7.06405 132.565 7.33831C132.828 7.61303 133.039 7.94969 133.198 8.34784C133.356 8.74644 133.435 9.20475 133.435 9.72275V9.74609C133.435 10.2645 133.356 10.7228 133.198 11.121C133.039 11.5196 132.83 11.8558 132.571 12.1305C132.311 12.4052 132.012 12.6122 131.672 12.7513C131.331 12.8905 130.976 12.9601 130.604 12.9601C130.132 12.9601 129.743 12.8671 129.439 12.6818C129.133 12.4959 128.876 12.2796 128.667 12.0318V14.7004H126.903V6.62505H128.667V7.51831C128.883 7.2243 129.144 6.9828 129.45 6.79293C129.755 6.6035 130.14 6.50879 130.604 6.50879ZM130.151 8.0058C129.943 8.0058 129.747 8.04619 129.566 8.12744C129.384 8.20869 129.225 8.32495 129.09 8.47577C128.955 8.62614 128.847 8.80839 128.765 9.02071C128.684 9.23392 128.643 9.46779 128.643 9.72275V9.74609C128.643 10.0015 128.684 10.2354 128.765 10.4481C128.847 10.6609 128.955 10.8427 129.09 10.9935C129.225 11.1443 129.384 11.2602 129.566 11.3414C129.747 11.4226 129.943 11.463 130.151 11.463C130.361 11.463 130.556 11.4226 130.738 11.3414C130.919 11.2602 131.08 11.1443 131.219 10.9935C131.359 10.8427 131.469 10.6627 131.55 10.454C131.631 10.2448 131.672 10.0091 131.672 9.74609V9.72275C131.672 9.46779 131.631 9.23392 131.55 9.02071C131.469 8.80839 131.359 8.62614 131.219 8.47577C131.08 8.32495 130.919 8.20869 130.738 8.12744C130.556 8.04619 130.361 8.0058 130.151 8.0058Z" fill="white"/>
</mask>
<g mask="url(#mask17_3960_136470)">
<path d="M126.903 6.50879H133.435V14.7004H126.903V6.50879Z" fill="#4C4D4C"/>
</g>
<mask id="mask18_3960_136470" style="mask-type:luminance" maskUnits="userSpaceOnUse" x="134" y="6" width="7" height="7">
<path d="M137.507 6.50879C138.026 6.50879 138.475 6.60171 138.853 6.78754C139.232 6.97293 139.548 7.2225 139.799 7.53582C140.051 7.84869 140.236 8.20869 140.356 8.61492C140.476 9.02071 140.536 9.44445 140.536 9.88524C140.536 9.95482 140.534 10.0284 140.53 10.1056C140.526 10.1833 140.52 10.2645 140.512 10.3494H136.185C136.27 10.7516 136.446 11.055 136.713 11.2602C136.979 11.4653 137.31 11.5676 137.705 11.5676C137.999 11.5676 138.262 11.5174 138.493 11.4168C138.726 11.3163 138.965 11.1538 139.213 10.9293L140.222 11.823C139.928 12.1866 139.573 12.4708 139.155 12.6759C138.738 12.8806 138.246 12.9834 137.681 12.9834C137.217 12.9834 136.786 12.9057 136.388 12.7513C135.99 12.5965 135.645 12.3761 135.355 12.0897C135.065 11.8037 134.839 11.4653 134.676 11.0748C134.514 10.6842 134.432 10.2488 134.432 9.76943V9.74609C134.432 9.30529 134.508 8.88739 134.659 8.49283C134.809 8.09826 135.02 7.75442 135.291 7.46041C135.562 7.16639 135.885 6.93432 136.26 6.7642C136.635 6.59408 137.051 6.50879 137.507 6.50879ZM137.507 7.92455C137.136 7.92455 136.836 8.0444 136.608 8.2841C136.38 8.5238 136.231 8.8452 136.161 9.24694H138.818C138.764 8.85283 138.625 8.53367 138.401 8.28993C138.176 8.04619 137.878 7.92455 137.507 7.92455Z" fill="white"/>
</mask>
<g mask="url(#mask18_3960_136470)">
<path d="M134.432 6.50879H140.536V12.9834H134.432V6.50879Z" fill="#4C4D4C"/>
</g>
<mask id="mask19_3960_136470" style="mask-type:luminance" maskUnits="userSpaceOnUse" x="141" y="6" width="5" height="7">
<path d="M145.595 6.50879V8.35367H145.502C144.914 8.35367 144.452 8.53188 144.115 8.88739C143.779 9.24335 143.611 9.79636 143.611 10.5464V12.8438H141.847V6.62505H143.611V7.87786C143.788 7.45278 144.032 7.11208 144.342 6.85712C144.651 6.6017 145.069 6.48545 145.595 6.50879Z" fill="white"/>
</mask>
<g mask="url(#mask19_3960_136470)">
<path d="M141.847 6.50586H145.595V12.8438H141.847V6.50586Z" fill="#4C4D4C"/>
</g>
<mask id="mask20_3960_136470" style="mask-type:luminance" maskUnits="userSpaceOnUse" x="146" y="6" width="7" height="7">
<path d="M149.273 6.55469C149.761 6.55469 150.176 6.61484 150.521 6.73469C150.865 6.85454 151.149 7.02691 151.374 7.2509C151.606 7.48297 151.776 7.76755 151.884 8.10376C151.993 8.44042 152.046 8.81748 152.046 9.23538V12.8435H150.341V12.171C150.124 12.4103 149.865 12.602 149.563 12.7452C149.262 12.8879 148.894 12.9597 148.461 12.9597C148.167 12.9597 147.891 12.9193 147.632 12.8381C147.372 12.7564 147.146 12.6347 146.953 12.4722C146.759 12.3097 146.606 12.1109 146.494 11.8748C146.382 11.6387 146.326 11.3662 146.326 11.0569V11.0336C146.326 10.6933 146.388 10.3993 146.512 10.152C146.635 9.90421 146.808 9.69907 147.028 9.53658C147.248 9.37453 147.511 9.25289 147.817 9.17119C148.122 9.0904 148.461 9.04955 148.832 9.04955C149.149 9.04955 149.426 9.07289 149.662 9.11912C149.898 9.16581 150.128 9.22775 150.352 9.30496V9.20037C150.352 8.82915 150.24 8.5468 150.016 8.35334C149.791 8.15987 149.459 8.06336 149.018 8.06336C148.678 8.06336 148.378 8.09254 148.119 8.15045C147.859 8.20835 147.587 8.29184 147.3 8.40002L146.86 7.05384C147.2 6.90706 147.556 6.78721 147.927 6.69429C148.299 6.60137 148.747 6.55469 149.273 6.55469ZM149.25 10.1053C148.871 10.1053 148.573 10.1789 148.357 10.3257C148.14 10.4729 148.032 10.6857 148.032 10.964V10.9874C148.032 11.2271 148.121 11.4129 148.299 11.544C148.477 11.6759 148.709 11.7415 148.995 11.7415C149.412 11.7415 149.747 11.6409 149.998 11.4398C150.25 11.2387 150.376 10.9757 150.376 10.6507V10.3374C150.221 10.2678 150.048 10.2117 149.859 10.169C149.67 10.1269 149.467 10.1053 149.25 10.1053Z" fill="white"/>
</mask>
<g mask="url(#mask20_3960_136470)">
<path d="M146.326 6.55469H152.046V12.9597H146.326V6.55469Z" fill="#4C4D4C"/>
</g>
<mask id="mask21_3960_136470" style="mask-type:luminance" maskUnits="userSpaceOnUse" x="153" y="6" width="7" height="7">
<path d="M156.525 6.50879C157.113 6.50879 157.6 6.60171 157.987 6.78754C158.374 6.97293 158.714 7.22834 159.008 7.55288L157.929 8.71323C157.728 8.5045 157.521 8.33841 157.309 8.21452C157.095 8.09063 156.831 8.02869 156.513 8.02869C156.289 8.02869 156.086 8.07358 155.904 8.16245C155.722 8.25133 155.564 8.37298 155.429 8.52784C155.293 8.6827 155.189 8.86225 155.115 9.06739C155.042 9.27253 155.005 9.49068 155.005 9.72275V9.74609C155.005 9.98579 155.042 10.2102 155.115 10.419C155.189 10.6281 155.295 10.8099 155.435 10.9643C155.574 11.1192 155.74 11.2409 155.933 11.3297C156.127 11.4186 156.344 11.463 156.583 11.463C156.877 11.463 157.134 11.4033 157.355 11.2835C157.575 11.1632 157.794 11.0029 158.01 10.8019L159.043 11.8464C158.741 12.179 158.397 12.4515 158.01 12.6642C157.623 12.877 157.121 12.9834 156.502 12.9834C156.038 12.9834 155.606 12.8981 155.208 12.728C154.81 12.5579 154.467 12.3276 154.181 12.0376C153.895 11.7476 153.671 11.4074 153.508 11.0164C153.346 10.6259 153.265 10.2102 153.265 9.76943V9.74609C153.265 9.30529 153.346 8.88739 153.508 8.49283C153.671 8.09826 153.895 7.75442 154.181 7.46041C154.467 7.16639 154.81 6.93432 155.208 6.7642C155.606 6.59408 156.045 6.50879 156.525 6.50879Z" fill="white"/>
</mask>
<g mask="url(#mask21_3960_136470)">
<path d="M153.265 6.50879H159.043V12.9834H153.265V6.50879Z" fill="#4C4D4C"/>
</g>
<mask id="mask22_3960_136470" style="mask-type:luminance" maskUnits="userSpaceOnUse" x="160" y="4" width="3" height="9">
<path d="M162.036 6.62514V12.8443H160.273V6.62514H162.036ZM162.083 4.37402V5.94016H160.226V4.37402H162.083Z" fill="white"/>
</mask>
<g mask="url(#mask22_3960_136470)">
<path d="M160.226 4.37402H162.083V12.8443H160.226V4.37402Z" fill="#4C4D4C"/>
</g>
<mask id="mask23_3960_136470" style="mask-type:luminance" maskUnits="userSpaceOnUse" x="163" y="3" width="8" height="10">
<path d="M166.771 6.50906C167.251 6.50906 167.695 6.59255 168.105 6.75864C168.515 6.92517 168.869 7.1532 169.167 7.44317C169.464 7.73315 169.699 8.07385 169.869 8.46437C170.039 8.85489 170.124 9.27459 170.124 9.72302V9.74636C170.124 10.1952 170.039 10.6149 169.869 11.005C169.699 11.396 169.463 11.7385 169.161 12.032C168.859 12.3261 168.503 12.5581 168.094 12.7283C167.684 12.8984 167.235 12.9837 166.748 12.9837C166.268 12.9837 165.823 12.9002 165.413 12.7341C165.004 12.5676 164.649 12.3395 164.352 12.0496C164.054 11.7596 163.82 11.4189 163.65 11.0284C163.48 10.6378 163.394 10.2181 163.394 9.7697V9.74636C163.394 9.29793 163.48 8.87823 163.65 8.48726C163.82 8.09674 164.056 7.75469 164.358 7.46068C164.659 7.16667 165.015 6.9346 165.425 6.76447C165.835 6.59435 166.284 6.50906 166.771 6.50906ZM166.748 8.02896C166.492 8.02896 166.266 8.07385 166.069 8.16272C165.872 8.2516 165.704 8.37325 165.564 8.52811C165.425 8.68297 165.319 8.86252 165.245 9.06766C165.172 9.2728 165.135 9.49095 165.135 9.72302V9.74636C165.135 9.97843 165.173 10.197 165.251 10.4017C165.329 10.6069 165.441 10.7887 165.588 10.9471C165.734 11.106 165.907 11.2317 166.104 11.3242C166.301 11.4171 166.523 11.4633 166.771 11.4633C167.026 11.4633 167.252 11.4189 167.45 11.33C167.647 11.2411 167.815 11.1195 167.954 10.9646C168.094 10.8102 168.2 10.6302 168.274 10.4251C168.347 10.2204 168.384 10.0018 168.384 9.7697V9.74636C168.384 9.51429 168.345 9.29569 168.268 9.091C168.191 8.88587 168.078 8.70407 167.931 8.54562C167.784 8.38716 167.61 8.26103 167.409 8.16856C167.208 8.07564 166.987 8.02896 166.748 8.02896ZM167.398 3.88672L168.918 4.54792L167.432 5.94033H166.086L167.398 3.88672Z" fill="white"/>
</mask>
<g mask="url(#mask23_3960_136470)">
<path d="M163.394 3.88672H170.124V12.9837H163.394V3.88672Z" fill="#4C4D4C"/>
</g>
<mask id="mask24_3960_136470" style="mask-type:luminance" maskUnits="userSpaceOnUse" x="171" y="6" width="7" height="7">
<path d="M174.985 6.50879C175.658 6.50879 176.178 6.71393 176.546 7.12375C176.913 7.53402 177.097 8.09826 177.097 8.81781V12.8438H175.333V9.3834C175.333 8.96684 175.24 8.65218 175.055 8.43986C174.869 8.22799 174.606 8.12161 174.266 8.12161C173.925 8.12161 173.657 8.22799 173.459 8.43986C173.262 8.65218 173.163 8.96684 173.163 9.3834V12.8438H171.4V6.62505H173.163V7.51383C173.264 7.38186 173.374 7.25482 173.494 7.13408C173.614 7.01333 173.747 6.90649 173.895 6.81268C174.041 6.71931 174.204 6.64525 174.382 6.59093C174.559 6.53617 174.761 6.50879 174.985 6.50879Z" fill="white"/>
</mask>
<g mask="url(#mask24_3960_136470)">
<path d="M171.4 6.50879H177.097V12.8438H171.4V6.50879Z" fill="#4C4D4C"/>
</g>
<mask id="mask25_3960_136470" style="mask-type:luminance" maskUnits="userSpaceOnUse" x="178" y="10" width="3" height="5">
<path d="M180.427 10.9873V12.5534C180.427 13.3192 180.242 13.8704 179.873 14.2067C179.504 14.5438 178.977 14.7157 178.292 14.7233L178.141 13.9925C178.957 13.9073 179.335 13.5244 179.274 12.8434H178.559V10.9873H180.427Z" fill="white"/>
</mask>
<g mask="url(#mask25_3960_136470)">
<path d="M178.141 10.9873H180.427V14.7233H178.141V10.9873Z" fill="#4C4D4C"/>
</g>
<mask id="mask26_3960_136470" style="mask-type:luminance" maskUnits="userSpaceOnUse" x="49" y="16" width="8" height="10">
<path d="M56.5179 16.9111V18.5594H54.0464V25.0336H52.2599V18.5594H49.7883V16.9111H56.5179Z" fill="white"/>
</mask>
<g mask="url(#mask26_3960_136470)">
<path d="M49.7883 16.9111H56.5179V25.0336H49.7883V16.9111Z" fill="#4C4D4C"/>
</g>
<mask id="mask27_3960_136470" style="mask-type:luminance" maskUnits="userSpaceOnUse" x="57" y="18" width="5" height="8">
<path d="M61.4493 18.6982V20.5427H61.3564C60.7684 20.5427 60.3065 20.7209 59.9698 21.0768C59.6332 21.4328 59.4653 21.9858 59.4653 22.7359V25.0333H57.7017V18.8141H59.4653V20.0673C59.6431 19.6418 59.8868 19.3011 60.1961 19.0461C60.5054 18.7907 60.9233 18.6749 61.4493 18.6982Z" fill="white"/>
</mask>
<g mask="url(#mask27_3960_136470)">
<path d="M57.7017 18.6953H61.4493V25.0333H57.7017V18.6953Z" fill="#4C4D4C"/>
</g>
<mask id="mask28_3960_136470" style="mask-type:luminance" maskUnits="userSpaceOnUse" x="62" y="18" width="6" height="8">
<path d="M65.1273 18.7451C65.6143 18.7451 66.0304 18.8053 66.3747 18.9247C66.7185 19.045 67.0031 19.2169 67.2271 19.4413C67.4596 19.6734 67.6293 19.958 67.7379 20.2942C67.8461 20.6304 67.9004 21.0075 67.9004 21.4254V25.0339H66.1947V24.361C65.9779 24.6007 65.7189 24.7924 65.4172 24.9356C65.1156 25.0783 64.748 25.1497 64.3152 25.1497C64.0208 25.1497 63.7443 25.1093 63.4853 25.0281C63.2263 24.9468 62.9996 24.8252 62.8066 24.6627C62.6131 24.5002 62.4605 24.3009 62.3483 24.0652C62.236 23.8291 62.1799 23.5566 62.1799 23.2474V23.2236C62.1799 22.8838 62.2419 22.5898 62.3658 22.342C62.4892 22.0946 62.6616 21.8895 62.882 21.727C63.1024 21.5645 63.3654 21.4429 63.6711 21.3616C63.9763 21.2804 64.3152 21.24 64.6865 21.24C65.0034 21.24 65.2799 21.2629 65.516 21.3096C65.7517 21.3558 65.9819 21.4177 66.2064 21.4954V21.3908C66.2064 21.0191 66.0941 20.7372 65.8697 20.5433C65.6453 20.3503 65.3131 20.2533 64.8719 20.2533C64.5316 20.2533 64.2318 20.2825 63.9727 20.3404C63.7133 20.3988 63.4408 20.4818 63.1549 20.59L62.7136 19.2443C63.0539 19.097 63.4099 18.9772 63.7811 18.8843C64.1527 18.7914 64.6012 18.7451 65.1273 18.7451ZM65.1039 22.2957C64.7246 22.2957 64.427 22.3694 64.2107 22.5161C63.9938 22.6634 63.8857 22.8761 63.8857 23.154V23.1773C63.8857 23.4175 63.9745 23.6033 64.1527 23.7344C64.3305 23.8659 64.5626 23.9319 64.8485 23.9319C65.2664 23.9319 65.6008 23.8313 65.8522 23.6298C66.1036 23.4292 66.2293 23.1661 66.2293 22.8411V22.5278C66.0748 22.4582 65.9025 22.4021 65.713 22.3595C65.5236 22.3173 65.3203 22.2957 65.1039 22.2957Z" fill="white"/>
</mask>
<g mask="url(#mask28_3960_136470)">
<path d="M62.1799 18.7451H67.9004V25.1497H62.1799V18.7451Z" fill="#4C4D4C"/>
</g>
<mask id="mask29_3960_136470" style="mask-type:luminance" maskUnits="userSpaceOnUse" x="69" y="18" width="7" height="8">
<path d="M73.0057 18.6982C73.6786 18.6982 74.1988 18.9029 74.5665 19.3132C74.9336 19.723 75.1177 20.2877 75.1177 21.0068V25.0332H73.354V21.5724C73.354 21.1558 73.2611 20.8412 73.0753 20.6293C72.8899 20.417 72.6269 20.3111 72.2862 20.3111C71.9459 20.3111 71.6775 20.417 71.48 20.6293C71.2829 20.8412 71.1842 21.1558 71.1842 21.5724V25.0332H69.4205V18.8141H71.1842V19.7033C71.2847 19.5709 71.3947 19.4438 71.515 19.3235C71.6348 19.2023 71.7682 19.0955 71.9149 19.0021C72.0617 18.9083 72.2242 18.8343 72.4024 18.7799C72.5802 18.7252 72.7813 18.6982 73.0057 18.6982Z" fill="white"/>
</mask>
<g mask="url(#mask29_3960_136470)">
<path d="M69.4205 18.6982H75.1177V25.0332H69.4205V18.6982Z" fill="#4C4D4C"/>
</g>
<mask id="mask30_3960_136470" style="mask-type:luminance" maskUnits="userSpaceOnUse" x="76" y="18" width="6" height="8">
<path d="M78.7491 18.7217C79.1436 18.7217 79.544 18.7854 79.9498 18.9134C80.3561 19.0408 80.7291 19.2168 81.0698 19.4412L80.3969 20.6595C80.0872 20.4817 79.7855 20.3403 79.4915 20.2357C79.1975 20.1316 78.9385 20.0795 78.7141 20.0795C78.4977 20.0795 78.3352 20.1199 78.227 20.2012C78.1184 20.2824 78.0645 20.3852 78.0645 20.5087V20.532C78.0645 20.6168 78.0991 20.6927 78.1691 20.7582C78.2387 20.8242 78.3312 20.8857 78.4474 20.9441C78.5637 21.002 78.697 21.0581 78.8478 21.112C78.9987 21.1663 79.1589 21.2206 79.329 21.2744C79.5458 21.344 79.7662 21.4271 79.9907 21.524C80.2147 21.621 80.4158 21.7386 80.594 21.8777C80.7717 22.0169 80.919 22.1875 81.0348 22.3881C81.151 22.5897 81.2089 22.8334 81.2089 23.1193V23.1427C81.2089 23.491 81.1488 23.7904 81.0289 24.0418C80.9091 24.2931 80.7407 24.5001 80.5244 24.6626C80.3076 24.8251 80.0544 24.9467 79.7644 25.028C79.4745 25.1092 79.1629 25.1496 78.8303 25.1496C78.3895 25.1496 77.9389 25.0746 77.4788 24.9238C77.0182 24.773 76.5792 24.5351 76.1617 24.2101L76.9159 23.0498C77.2561 23.2975 77.5946 23.4829 77.9312 23.6068C78.2674 23.7303 78.5825 23.7922 78.8766 23.7922C79.132 23.7922 79.3196 23.75 79.4394 23.6647C79.5593 23.5799 79.6194 23.4677 79.6194 23.3281V23.3052C79.6194 23.2122 79.5844 23.131 79.5149 23.0614C79.4453 22.9918 79.3506 22.9321 79.2307 22.8814C79.1104 22.8312 78.9735 22.7827 78.8187 22.7364C78.6638 22.6902 78.5013 22.6399 78.3312 22.5856C78.1148 22.5237 77.8962 22.4483 77.6758 22.3594C77.4554 22.2705 77.2561 22.1542 77.0784 22.0111C76.9001 21.8683 76.7552 21.6923 76.6429 21.4832C76.5312 21.2744 76.4751 21.019 76.4751 20.7174V20.6945C76.4751 20.3776 76.5348 20.097 76.6546 19.8533C76.7745 19.6091 76.937 19.4026 77.1421 19.2321C77.3468 19.0624 77.5869 18.9344 77.8616 18.8496C78.1359 18.7643 78.4317 18.7217 78.7491 18.7217Z" fill="white"/>
</mask>
<g mask="url(#mask30_3960_136470)">
<path d="M76.1617 18.7217H81.2089V25.1496H76.1617V18.7217Z" fill="#4C4D4C"/>
</g>
<mask id="mask31_3960_136470" style="mask-type:luminance" maskUnits="userSpaceOnUse" x="82" y="16" width="4" height="10">
<path d="M84.7012 16.4824C84.98 16.4824 85.2179 16.4981 85.4149 16.5291C85.6124 16.5601 85.792 16.6027 85.9545 16.6566V18.1186C85.823 18.0719 85.695 18.0355 85.5716 18.0082C85.4477 17.9812 85.3086 17.9678 85.1537 17.9678C84.7286 17.9678 84.5158 18.1922 84.5158 18.6406V18.8844H85.9428V20.323H84.5387V25.034H82.7751V20.323H82.0443V18.8727H82.7751V18.4781C82.7751 17.8053 82.9416 17.3025 83.2742 16.9699C83.5992 16.6449 84.075 16.4824 84.7012 16.4824Z" fill="white"/>
</mask>
<g mask="url(#mask31_3960_136470)">
<path d="M82.0443 16.4824H85.9545V25.034H82.0443V16.4824Z" fill="#4C4D4C"/>
</g>
<mask id="mask32_3960_136470" style="mask-type:luminance" maskUnits="userSpaceOnUse" x="86" y="18" width="8" height="8">
<path d="M89.9802 18.6982C90.4596 18.6982 90.9045 18.7813 91.3147 18.9474C91.7246 19.1139 92.0787 19.3419 92.3763 19.6319C92.6739 19.9223 92.9082 20.2626 93.0784 20.6531C93.2485 21.0441 93.3338 21.4638 93.3338 21.9122V21.9355C93.3338 22.384 93.2485 22.8037 93.0784 23.1942C92.9082 23.5852 92.6721 23.9272 92.3705 24.2212C92.0688 24.5152 91.7129 24.7473 91.3031 24.9174C90.8928 25.0876 90.4444 25.1724 89.9573 25.1724C89.4775 25.1724 89.0326 25.0894 88.6228 24.9233C88.2125 24.7567 87.8588 24.5287 87.5612 24.2387C87.2632 23.9488 87.0293 23.6081 86.8592 23.2175C86.689 22.827 86.6038 22.4073 86.6038 21.9584V21.9355C86.6038 21.4867 86.689 21.067 86.8592 20.6764C87.0293 20.2859 87.2654 19.9439 87.5671 19.6494C87.8687 19.3558 88.2242 19.1233 88.6345 18.9532C89.0443 18.7831 89.4932 18.6982 89.9802 18.6982ZM89.9573 20.2181C89.7019 20.2181 89.4757 20.2626 89.2782 20.3515C89.0811 20.4403 88.9128 20.5624 88.7736 20.7168C88.6345 20.8717 88.5281 21.0517 88.4545 21.2568C88.3809 21.4615 88.3445 21.6801 88.3445 21.9122V21.9355C88.3445 22.1672 88.3831 22.3862 88.4603 22.5909C88.5375 22.796 88.6497 22.9778 88.797 23.1363C88.9438 23.2952 89.1161 23.4204 89.3132 23.5133C89.5107 23.6063 89.7324 23.6525 89.9802 23.6525C90.2356 23.6525 90.4619 23.6081 90.6589 23.5192C90.8564 23.4303 91.0248 23.3087 91.1639 23.1533C91.3031 22.9989 91.4094 22.8194 91.4831 22.6142C91.5562 22.4091 91.593 22.1905 91.593 21.9584V21.9355C91.593 21.703 91.5544 21.4849 91.4772 21.2797C91.3996 21.075 91.2874 20.8933 91.1406 20.7343C90.9938 20.5759 90.8196 20.4502 90.6185 20.3573C90.4174 20.2648 90.197 20.2181 89.9573 20.2181Z" fill="white"/>
</mask>
<g mask="url(#mask32_3960_136470)">
<path d="M86.6038 18.6982H93.3338V25.1724H86.6038V18.6982Z" fill="#4C4D4C"/>
</g>
<mask id="mask33_3960_136470" style="mask-type:luminance" maskUnits="userSpaceOnUse" x="94" y="18" width="5" height="8">
<path d="M98.3579 18.6982V20.5427H98.265C97.677 20.5427 97.2151 20.7209 96.8784 21.0768C96.5422 21.4328 96.3739 21.9858 96.3739 22.7359V25.0333H94.6102V18.8141H96.3739V20.0673C96.5516 19.6418 96.7954 19.3011 97.1046 19.0461C97.4139 18.7907 97.8318 18.6749 98.3579 18.6982Z" fill="white"/>
</mask>
<g mask="url(#mask33_3960_136470)">
<path d="M94.6102 18.6953H98.3579V25.0333H94.6102V18.6953Z" fill="#4C4D4C"/>
</g>
<mask id="mask34_3960_136470" style="mask-type:luminance" maskUnits="userSpaceOnUse" x="99" y="18" width="10" height="8">
<path d="M106.851 18.6982C107.509 18.6982 108.023 18.8917 108.394 19.2782C108.766 19.6651 108.951 20.2339 108.951 20.9839V25.0332H107.188V21.5724C107.188 21.1558 107.099 20.8412 106.921 20.6293C106.743 20.417 106.488 20.3111 106.155 20.3111C105.822 20.3111 105.561 20.417 105.372 20.6293C105.182 20.8412 105.087 21.1558 105.087 21.5724V25.0332H103.324V21.5724C103.324 21.1558 103.235 20.8412 103.057 20.6293C102.879 20.417 102.624 20.3111 102.291 20.3111C101.959 20.3111 101.698 20.417 101.508 20.6293C101.319 20.8412 101.224 21.1558 101.224 21.5724V25.0332H99.4603V18.8141H101.224V19.7033C101.325 19.5709 101.434 19.4438 101.554 19.3235C101.674 19.2023 101.808 19.0955 101.955 19.0021C102.102 18.9083 102.266 18.8343 102.448 18.7799C102.63 18.7252 102.833 18.6982 103.057 18.6982C103.467 18.6982 103.821 18.7835 104.119 18.955C104.416 19.1265 104.647 19.372 104.809 19.6912C105.08 19.3644 105.381 19.1166 105.714 18.9496C106.047 18.7817 106.426 18.6982 106.851 18.6982Z" fill="white"/>
</mask>
<g mask="url(#mask34_3960_136470)">
<path d="M99.4603 18.6982H108.951V25.0332H99.4603V18.6982Z" fill="#4C4D4C"/>
</g>
<mask id="mask35_3960_136470" style="mask-type:luminance" maskUnits="userSpaceOnUse" x="110" y="18" width="6" height="8">
<path d="M113.059 18.7451C113.546 18.7451 113.962 18.8053 114.306 18.9247C114.65 19.045 114.934 19.2169 115.159 19.4413C115.391 19.6734 115.561 19.958 115.669 20.2942C115.778 20.6304 115.832 21.0075 115.832 21.4254V25.0339H114.126V24.361C113.909 24.6007 113.65 24.7924 113.349 24.9356C113.047 25.0783 112.679 25.1497 112.246 25.1497C111.952 25.1497 111.676 25.1093 111.417 25.0281C111.157 24.9468 110.931 24.8252 110.738 24.6627C110.545 24.5002 110.392 24.3009 110.28 24.0652C110.168 23.8291 110.111 23.5566 110.111 23.2474V23.2236C110.111 22.8838 110.173 22.5898 110.297 22.342C110.421 22.0946 110.593 21.8895 110.813 21.727C111.034 21.5645 111.297 21.4429 111.603 21.3616C111.908 21.2804 112.246 21.24 112.618 21.24C112.935 21.24 113.211 21.2629 113.447 21.3096C113.683 21.3558 113.913 21.4177 114.137 21.4954V21.3908C114.137 21.0191 114.025 20.7372 113.801 20.5433C113.577 20.3503 113.244 20.2533 112.803 20.2533C112.463 20.2533 112.163 20.2825 111.904 20.3404C111.645 20.3988 111.372 20.4818 111.086 20.59L110.645 19.2443C110.985 19.097 111.341 18.9772 111.713 18.8843C112.084 18.7914 112.533 18.7451 113.059 18.7451ZM113.035 22.2957C112.656 22.2957 112.359 22.3694 112.142 22.5161C111.925 22.6634 111.817 22.8761 111.817 23.154V23.1773C111.817 23.4175 111.906 23.6033 112.084 23.7344C112.262 23.8659 112.494 23.9319 112.78 23.9319C113.198 23.9319 113.532 23.8313 113.784 23.6298C114.035 23.4292 114.161 23.1661 114.161 22.8411V22.5278C114.006 22.4582 113.834 22.4021 113.645 22.3595C113.455 22.3173 113.252 22.2957 113.035 22.2957Z" fill="white"/>
</mask>
<g mask="url(#mask35_3960_136470)">
<path d="M110.111 18.7451H115.832V25.1497H110.111V18.7451Z" fill="#4C4D4C"/>
</g>
<mask id="mask36_3960_136470" style="mask-type:luminance" maskUnits="userSpaceOnUse" x="117" y="18" width="6" height="8">
<path d="M120.311 18.6982C120.898 18.6982 121.386 18.7907 121.773 18.9765C122.16 19.1619 122.5 19.4173 122.794 19.7419L121.715 20.9027C121.513 20.694 121.307 20.5274 121.094 20.404C120.881 20.2801 120.616 20.2181 120.299 20.2181C120.075 20.2181 119.872 20.2626 119.69 20.3515C119.508 20.4403 119.35 20.5624 119.214 20.7168C119.079 20.8717 118.974 21.0517 118.901 21.2568C118.827 21.4615 118.791 21.6801 118.791 21.9122V21.9355C118.791 22.1752 118.827 22.3997 118.901 22.608C118.974 22.8171 119.081 22.9989 119.22 23.1533C119.359 23.3087 119.526 23.4303 119.719 23.5192C119.912 23.6081 120.129 23.6525 120.369 23.6525C120.663 23.6525 120.92 23.5928 121.14 23.473C121.361 23.3527 121.579 23.1924 121.796 22.9913L122.828 24.0358C122.527 24.3685 122.183 24.6409 121.796 24.8537C121.409 25.0665 120.906 25.1724 120.287 25.1724C119.823 25.1724 119.392 25.0876 118.994 24.9174C118.595 24.7473 118.253 24.517 117.967 24.2271C117.681 23.9366 117.456 23.5964 117.294 23.2059C117.131 22.8153 117.05 22.3997 117.05 21.9584V21.9355C117.05 21.4947 117.131 21.0768 117.294 20.6823C117.456 20.2877 117.681 19.9439 117.967 19.6494C118.253 19.3558 118.595 19.1233 118.994 18.9532C119.392 18.7831 119.831 18.6982 120.311 18.6982Z" fill="white"/>
</mask>
<g mask="url(#mask36_3960_136470)">
<path d="M117.05 18.6982H122.828V25.1724H117.05V18.6982Z" fill="#4C4D4C"/>
</g>
<mask id="mask37_3960_136470" style="mask-type:luminance" maskUnits="userSpaceOnUse" x="124" y="16" width="2" height="10">
<path d="M125.822 18.8141V25.0333H124.058V18.8141H125.822ZM125.869 16.5635V18.1296H124.012V16.5635H125.869Z" fill="white"/>
</mask>
<g mask="url(#mask37_3960_136470)">
<path d="M124.012 16.5635H125.869V25.0333H124.012V16.5635Z" fill="#4C4D4C"/>
</g>
<mask id="mask38_3960_136470" style="mask-type:luminance" maskUnits="userSpaceOnUse" x="127" y="16" width="7" height="10">
<path d="M130.557 18.699C131.037 18.699 131.481 18.782 131.891 18.9481C132.301 19.1146 132.655 19.3427 132.953 19.6326C133.251 19.9231 133.485 20.2633 133.655 20.6538C133.825 21.0448 133.91 21.4645 133.91 21.9129V21.9363C133.91 22.3847 133.825 22.8044 133.655 23.1949C133.485 23.5859 133.249 23.9279 132.947 24.2219C132.646 24.516 132.29 24.748 131.88 24.9182C131.47 25.0883 131.021 25.1731 130.534 25.1731C130.054 25.1731 129.609 25.0901 129.199 24.924C128.79 24.7575 128.435 24.5294 128.138 24.2395C127.84 23.9495 127.606 23.6088 127.436 23.2183C127.266 22.8277 127.18 22.408 127.18 21.9592V21.9363C127.18 21.4874 127.266 21.0677 127.436 20.6772C127.606 20.2866 127.842 19.9446 128.144 19.6501C128.445 19.3566 128.801 19.124 129.211 18.9539C129.621 18.7838 130.07 18.699 130.557 18.699ZM130.534 20.2189C130.279 20.2189 130.052 20.2633 129.855 20.3522C129.658 20.4411 129.489 20.5631 129.35 20.7176C129.211 20.8724 129.105 21.0524 129.031 21.2576C128.958 21.4623 128.921 21.6809 128.921 21.9129V21.9363C128.921 22.1679 128.96 22.3869 129.037 22.5916C129.114 22.7968 129.226 22.9786 129.374 23.137C129.52 23.2959 129.693 23.4212 129.89 23.5141C130.087 23.607 130.31 23.6532 130.557 23.6532C130.812 23.6532 131.039 23.6088 131.236 23.5199C131.433 23.431 131.601 23.3094 131.741 23.1541C131.88 22.9997 131.986 22.8201 132.06 22.615C132.133 22.4098 132.17 22.1912 132.17 21.9592V21.9363C132.17 21.7037 132.131 21.4856 132.054 21.2805C131.976 21.0758 131.864 20.894 131.717 20.7351C131.57 20.5766 131.396 20.4509 131.195 20.358C130.994 20.2655 130.774 20.2189 130.534 20.2189ZM131.184 16.0762L132.703 16.7378L131.219 18.1302H129.872L131.184 16.0762Z" fill="white"/>
</mask>
<g mask="url(#mask38_3960_136470)">
<path d="M127.18 16.0762H133.91V25.1731H127.18V16.0762Z" fill="#4C4D4C"/>
</g>
<mask id="mask39_3960_136470" style="mask-type:luminance" maskUnits="userSpaceOnUse" x="135" y="18" width="6" height="8">
<path d="M138.771 18.6982C139.444 18.6982 139.964 18.9029 140.332 19.3132C140.699 19.723 140.882 20.2877 140.882 21.0068V25.0332H139.119V21.5724C139.119 21.1558 139.026 20.8412 138.84 20.6293C138.655 20.417 138.392 20.3111 138.051 20.3111C137.711 20.3111 137.443 20.417 137.245 20.6293C137.048 20.8412 136.949 21.1558 136.949 21.5724V25.0332H135.186V18.8141H136.949V19.7033C137.05 19.5709 137.16 19.4438 137.28 19.3235C137.4 19.2023 137.533 19.0955 137.68 19.0021C137.827 18.9083 137.989 18.8343 138.168 18.7799C138.345 18.7252 138.546 18.6982 138.771 18.6982Z" fill="white"/>
</mask>
<g mask="url(#mask39_3960_136470)">
<path d="M135.186 18.6982H140.882V25.0332H135.186V18.6982Z" fill="#4C4D4C"/>
</g>
<mask id="mask40_3960_136470" style="mask-type:luminance" maskUnits="userSpaceOnUse" x="50" y="30" width="8" height="9">
<path d="M52.6414 30.5684L54.0567 34.804L55.4146 30.5684H57.2478L54.8575 36.9388C54.7417 37.2557 54.6178 37.5251 54.4863 37.7455C54.3543 37.9659 54.2098 38.1454 54.0509 38.2846C53.8924 38.4242 53.7129 38.5243 53.5113 38.5862C53.3107 38.6482 53.0782 38.6791 52.8156 38.6791C52.4906 38.6791 52.2042 38.6405 51.9569 38.5633C51.7091 38.4861 51.4734 38.3815 51.249 38.25L51.8411 36.9734C51.9569 37.0434 52.0826 37.1009 52.2181 37.1476C52.3532 37.1942 52.4789 37.2171 52.5952 37.2171C52.7496 37.2171 52.8717 37.188 52.9606 37.1305C53.0495 37.0721 53.1325 36.9658 53.2102 36.8109L50.7732 30.5684H52.6414Z" fill="white"/>
</mask>
<g mask="url(#mask40_3960_136470)">
<path d="M50.7732 30.5684H57.2478V38.6791H50.7732V30.5684Z" fill="#4C4D4C"/>
</g>
<mask id="mask41_3960_136470" style="mask-type:luminance" maskUnits="userSpaceOnUse" x="61" y="28" width="8" height="9">
<path d="M65.6715 28.666C66.6998 28.666 67.489 28.9407 68.0384 29.4902C68.5025 29.9538 68.7341 30.5728 68.7341 31.3467V31.3696C68.7341 32.0272 68.5734 32.5632 68.2525 32.9766C67.932 33.3909 67.5123 33.6943 66.9938 33.8878L68.9783 36.7885H66.8893L65.149 34.189H63.7453V36.7885H61.9579V28.666H65.6715ZM65.5202 30.2788H63.7453V32.6112H65.5552C65.9964 32.6112 66.3344 32.5071 66.5706 32.2979C66.8062 32.0892 66.9243 31.8109 66.9243 31.4625V31.4392C66.9243 31.0527 66.8004 30.7627 66.553 30.5688C66.3053 30.3758 65.9614 30.2788 65.5202 30.2788Z" fill="white"/>
</mask>
<g mask="url(#mask41_3960_136470)">
<path d="M61.9579 28.666H68.9783V36.7885H61.9579V28.666Z" fill="#4C4D4C"/>
</g>
<mask id="mask42_3960_136470" style="mask-type:luminance" maskUnits="userSpaceOnUse" x="69" y="30" width="7" height="7">
<path d="M72.9343 30.4531C73.4528 30.4531 73.9016 30.546 74.2805 30.7319C74.6593 30.9173 74.9749 31.1664 75.2263 31.4802C75.4777 31.7935 75.663 32.153 75.7829 32.5593C75.9027 32.9655 75.9629 33.3888 75.9629 33.8296C75.9629 33.8992 75.9611 33.9728 75.9571 34.05C75.953 34.1276 75.9472 34.2089 75.9395 34.2937H71.6119C71.6968 34.6959 71.8727 34.9998 72.1398 35.2049C72.4064 35.4096 72.7373 35.5124 73.1318 35.5124C73.4258 35.5124 73.6889 35.4617 73.9205 35.3611C74.153 35.2611 74.3923 35.0986 74.64 34.8741L75.6496 35.7674C75.3556 36.131 75 36.4156 74.5821 36.6203C74.1647 36.8249 73.6732 36.9277 73.1085 36.9277C72.6443 36.9277 72.2134 36.8505 71.8148 36.6957C71.4167 36.5412 71.0724 36.3208 70.7819 36.0345C70.492 35.7481 70.2657 35.4096 70.1032 35.0191C69.9412 34.6286 69.8595 34.1932 69.8595 33.7138V33.6904C69.8595 33.2496 69.9354 32.8322 70.0862 32.4376C70.2366 32.043 70.4475 31.6988 70.7182 31.4043C70.9889 31.1107 71.3121 30.8787 71.6873 30.7085C72.0626 30.5384 72.4783 30.4531 72.9343 30.4531ZM72.9343 31.8689C72.5631 31.8689 72.2632 31.9887 72.0352 32.2284C71.8072 32.4686 71.6582 32.7895 71.5886 33.1917H74.2455C74.1916 32.7972 74.0525 32.478 73.828 32.2343C73.6036 31.9905 73.3055 31.8689 72.9343 31.8689Z" fill="white"/>
</mask>
<g mask="url(#mask42_3960_136470)">
<path d="M69.8595 30.4531H75.9629V36.9277H69.8595V30.4531Z" fill="#4C4D4C"/>
</g>
<mask id="mask43_3960_136470" style="mask-type:luminance" maskUnits="userSpaceOnUse" x="76" y="30" width="6" height="7">
<path d="M79.3742 30.4766C79.7687 30.4766 80.1687 30.5403 80.5745 30.6678C80.9811 30.7953 81.3542 30.9712 81.6949 31.1961L81.0215 32.4144C80.7123 32.2362 80.4102 32.0952 80.1166 31.9906C79.8226 31.886 79.5636 31.834 79.3391 31.834C79.1223 31.834 78.9598 31.8748 78.8517 31.9561C78.7435 32.0369 78.6896 32.1397 78.6896 32.2635V32.2869C78.6896 32.3717 78.7242 32.4471 78.7938 32.5127C78.8633 32.5787 78.9563 32.6406 79.0721 32.6985C79.1883 32.7564 79.3216 32.8125 79.4725 32.8668C79.6233 32.9207 79.784 32.975 79.9541 33.0293C80.1705 33.0989 80.3909 33.1819 80.6153 33.2785C80.8397 33.3754 81.0408 33.4935 81.219 33.6326C81.3968 33.7718 81.5436 33.9419 81.6598 34.143C81.7757 34.3441 81.834 34.5878 81.834 34.8742V34.8976C81.834 35.2454 81.7739 35.5453 81.654 35.7967C81.5342 36.048 81.3658 36.255 81.1495 36.4175C80.9327 36.5795 80.679 36.7016 80.3891 36.7828C80.0991 36.8636 79.7876 36.9045 79.455 36.9045C79.0142 36.9045 78.5635 36.8291 78.1034 36.6783C77.6433 36.5274 77.2043 36.2895 76.7864 35.9645L77.5405 34.8046C77.8812 35.0524 78.2192 35.2378 78.5559 35.3612C78.8925 35.4851 79.2072 35.5471 79.5016 35.5471C79.7566 35.5471 79.9442 35.5044 80.0641 35.4196C80.1844 35.3348 80.2441 35.2221 80.2441 35.0829V35.0596C80.2441 34.9671 80.2095 34.8854 80.1399 34.8159C80.0699 34.7463 79.9752 34.6866 79.8554 34.6363C79.7355 34.586 79.5981 34.5376 79.4437 34.4909C79.2889 34.4446 79.1264 34.3948 78.9563 34.34C78.7394 34.2786 78.5213 34.2031 78.3009 34.1143C78.08 34.0254 77.8812 33.9091 77.7034 33.7659C77.5252 33.6232 77.3798 33.4472 77.268 33.2381C77.1558 33.0293 77.0997 32.7739 77.0997 32.4723V32.4489C77.0997 32.132 77.1594 31.8515 77.2797 31.6077C77.3995 31.364 77.5616 31.1571 77.7667 30.9869C77.9719 30.8168 78.2116 30.6893 78.4863 30.604C78.7605 30.5192 79.0568 30.4766 79.3742 30.4766Z" fill="white"/>
</mask>
<g mask="url(#mask43_3960_136470)">
<path d="M76.7864 30.4766H81.834V36.9045H76.7864V30.4766Z" fill="#4C4D4C"/>
</g>
<mask id="mask44_3960_136470" style="mask-type:luminance" maskUnits="userSpaceOnUse" x="83" y="28" width="2" height="9">
<path d="M84.9437 30.569V36.7882H83.18V30.569H84.9437ZM84.9903 28.3184V29.8845H83.1338V28.3184H84.9903Z" fill="white"/>
</mask>
<g mask="url(#mask44_3960_136470)">
<path d="M83.1338 28.3184H84.9903V36.7882H83.1338V28.3184Z" fill="#4C4D4C"/>
</g>
<mask id="mask45_3960_136470" style="mask-type:luminance" maskUnits="userSpaceOnUse" x="86" y="28" width="3" height="9">
<path d="M88.4474 28.3184V36.7887H86.6837V28.3184H88.4474Z" fill="white"/>
</mask>
<g mask="url(#mask45_3960_136470)">
<path d="M86.6837 28.3184H88.4474V36.7887H86.6837V28.3184Z" fill="#4C4D4C"/>
</g>
<mask id="mask46_3960_136470" style="mask-type:luminance" maskUnits="userSpaceOnUse" x="90" y="28" width="2" height="9">
<path d="M91.9515 30.569V36.7882H90.1878V30.569H91.9515ZM91.9977 28.3184V29.8845H90.1416V28.3184H91.9977Z" fill="white"/>
</mask>
<g mask="url(#mask46_3960_136470)">
<path d="M90.1416 28.3184H91.9977V36.7882H90.1416V28.3184Z" fill="#4C4D4C"/>
</g>
<mask id="mask47_3960_136470" style="mask-type:luminance" maskUnits="userSpaceOnUse" x="93" y="30" width="7" height="7">
<path d="M96.3833 30.4531C96.9018 30.4531 97.3507 30.546 97.7295 30.7319C98.1084 30.9173 98.4239 31.1664 98.6753 31.4802C98.9267 31.7935 99.1121 32.153 99.2319 32.5593C99.3522 32.9655 99.4124 33.3888 99.4124 33.8296C99.4124 33.8992 99.4101 33.9728 99.4061 34.05C99.402 34.1276 99.3962 34.2089 99.3886 34.2937H95.0609C95.1458 34.6959 95.3217 34.9998 95.5888 35.2049C95.8554 35.4096 96.1863 35.5124 96.5808 35.5124C96.8748 35.5124 97.1379 35.4617 97.37 35.3611C97.602 35.2611 97.8417 35.0986 98.0891 34.8741L99.0986 35.7674C98.8046 36.131 98.4491 36.4156 98.0316 36.6203C97.6137 36.8249 97.1222 36.9277 96.5575 36.9277C96.0933 36.9277 95.6624 36.8505 95.2638 36.6957C94.8657 36.5412 94.5214 36.3208 94.231 36.0345C93.941 35.7481 93.7152 35.4096 93.5523 35.0191C93.3902 34.6286 93.309 34.1932 93.309 33.7138V33.6904C93.309 33.2496 93.3844 32.8322 93.5352 32.4376C93.6856 32.043 93.8965 31.6988 94.1672 31.4043C94.4383 31.1107 94.7611 30.8787 95.1363 30.7085C95.5116 30.5384 95.9273 30.4531 96.3833 30.4531ZM96.3833 31.8689C96.0121 31.8689 95.7123 31.9887 95.4842 32.2284C95.2562 32.4686 95.1072 32.7895 95.0376 33.1917H97.6945C97.6406 32.7972 97.5015 32.478 97.277 32.2343C97.0526 31.9905 96.755 31.8689 96.3833 31.8689Z" fill="white"/>
</mask>
<g mask="url(#mask47_3960_136470)">
<path d="M93.309 30.4531H99.4124V36.9277H93.309V30.4531Z" fill="#4C4D4C"/>
</g>
<mask id="mask48_3960_136470" style="mask-type:luminance" maskUnits="userSpaceOnUse" x="100" y="30" width="7" height="7">
<path d="M104.308 30.4531C104.981 30.4531 105.501 30.6583 105.869 31.0681C106.237 31.4779 106.42 32.043 106.42 32.7622V36.7886H104.657V33.3277C104.657 32.9112 104.564 32.5965 104.378 32.3842C104.192 32.1723 103.929 32.0659 103.589 32.0659C103.248 32.0659 102.98 32.1723 102.782 32.3842C102.585 32.5965 102.487 32.9112 102.487 33.3277V36.7886H100.723V30.5689H102.487V31.4582C102.587 31.3257 102.697 31.1992 102.817 31.0784C102.937 30.9577 103.071 30.8508 103.218 30.7575C103.365 30.6636 103.527 30.5896 103.705 30.5353C103.883 30.4805 104.084 30.4531 104.308 30.4531Z" fill="white"/>
</mask>
<g mask="url(#mask48_3960_136470)">
<path d="M100.723 30.4531H106.42V36.7886H100.723V30.4531Z" fill="#4C4D4C"/>
</g>
<mask id="mask49_3960_136470" style="mask-type:luminance" maskUnits="userSpaceOnUse" x="107" y="30" width="7" height="7">
<path d="M110.91 30.4531C111.498 30.4531 111.985 30.546 112.372 30.7319C112.759 30.9173 113.099 31.1727 113.393 31.4972L112.314 32.658C112.113 32.4488 111.906 32.2827 111.694 32.1589C111.48 32.0354 111.216 31.973 110.899 31.973C110.674 31.973 110.471 32.0179 110.29 32.1068C110.108 32.1957 109.949 32.3173 109.814 32.4722C109.679 32.627 109.574 32.8066 109.501 33.0117C109.427 33.2169 109.39 33.435 109.39 33.6675V33.6904C109.39 33.9306 109.427 34.1546 109.501 34.3633C109.574 34.5725 109.68 34.7543 109.82 34.9087C109.959 35.0635 110.125 35.1856 110.319 35.2745C110.512 35.3634 110.729 35.4078 110.969 35.4078C111.262 35.4078 111.519 35.3477 111.74 35.2278C111.96 35.108 112.179 34.9477 112.396 34.7462L113.428 35.7907C113.126 36.1233 112.782 36.3958 112.396 36.6086C112.009 36.8213 111.506 36.9277 110.887 36.9277C110.423 36.9277 109.991 36.8424 109.593 36.6728C109.195 36.5026 108.853 36.2719 108.566 35.9819C108.28 35.692 108.056 35.3517 107.893 34.9612C107.731 34.5707 107.65 34.1546 107.65 33.7138V33.6904C107.65 33.2496 107.731 32.8322 107.893 32.4376C108.056 32.043 108.28 31.6988 108.566 31.4043C108.853 31.1107 109.195 30.8787 109.593 30.7085C109.991 30.5384 110.43 30.4531 110.91 30.4531Z" fill="white"/>
</mask>
<g mask="url(#mask49_3960_136470)">
<path d="M107.65 30.4531H113.428V36.9277H107.65V30.4531Z" fill="#4C4D4C"/>
</g>
<mask id="mask50_3960_136470" style="mask-type:luminance" maskUnits="userSpaceOnUse" x="114" y="28" width="3" height="9">
<path d="M116.422 30.569V36.7882H114.658V30.569H116.422ZM116.468 28.3184V29.8845H114.612V28.3184H116.468Z" fill="white"/>
</mask>
<g mask="url(#mask50_3960_136470)">
<path d="M114.612 28.3184H116.468V36.7882H114.612V28.3184Z" fill="#4C4D4C"/>
</g>
<mask id="mask51_3960_136470" style="mask-type:luminance" maskUnits="userSpaceOnUse" x="117" y="30" width="7" height="7">
<path d="M120.656 30.499C121.144 30.499 121.56 30.5592 121.904 30.679C122.248 30.7989 122.532 30.9708 122.757 31.1957C122.989 31.4273 123.159 31.7119 123.267 32.0485C123.376 32.3848 123.43 32.7618 123.43 33.1793V36.7882H121.724V36.1149C121.508 36.3551 121.248 36.5467 120.947 36.6895C120.645 36.8327 120.278 36.9041 119.844 36.9041C119.55 36.9041 119.274 36.8632 119.015 36.7824C118.755 36.7012 118.529 36.5791 118.336 36.417C118.143 36.2545 117.99 36.0552 117.878 35.8196C117.766 35.5835 117.71 35.3105 117.71 35.0013V34.9779C117.71 34.6377 117.772 34.3437 117.895 34.0963C118.018 33.849 118.191 33.6439 118.412 33.4814C118.632 33.3189 118.895 33.1968 119.2 33.116C119.506 33.0347 119.844 32.9939 120.216 32.9939C120.533 32.9939 120.81 33.0172 121.045 33.0635C121.281 33.1097 121.512 33.1721 121.736 33.2493V33.1447C121.736 32.7735 121.624 32.4911 121.399 32.2977C121.175 32.1042 120.842 32.0077 120.402 32.0077C120.061 32.0077 119.761 32.0364 119.502 32.0948C119.243 32.1527 118.97 32.2357 118.684 32.3439L118.243 30.9982C118.584 30.8514 118.94 30.7315 119.311 30.6382C119.682 30.5457 120.131 30.499 120.656 30.499ZM120.633 34.0496C120.254 34.0496 119.957 34.1233 119.74 34.27C119.524 34.4173 119.415 34.63 119.415 34.9083V34.9317C119.415 35.1714 119.504 35.3572 119.682 35.4887C119.86 35.6198 120.092 35.6858 120.378 35.6858C120.796 35.6858 121.13 35.5853 121.382 35.3842C121.633 35.1831 121.759 34.92 121.759 34.595V34.2822C121.604 34.2126 121.432 34.1565 121.243 34.1138C121.053 34.0712 120.85 34.0496 120.633 34.0496Z" fill="white"/>
</mask>
<g mask="url(#mask51_3960_136470)">
<path d="M117.71 30.499H123.43V36.9041H117.71V30.499Z" fill="#4C4D4C"/>
</g>
</g>
<defs>
<clipPath id="clip0_3960_136470">
<rect width="180" height="40" fill="white" transform="translate(0 0.320312)"/>
</clipPath>
</defs>
</svg>
